<svg width="1830" height="589" viewBox="0 0 1830 589" fill="none" xmlns="http://www.w3.org/2000/svg">
<path d="M1617.54 463.22V234.86C1617.54 219.948 1629.62 207.86 1644.54 207.86H1668.42V436.22C1668.42 451.131 1656.33 463.22 1641.42 463.22H1617.54ZM1616.58 170.9V147.02C1616.58 132.108 1628.66 120.02 1643.58 120.02H1669.86V143.9C1669.86 158.811 1657.77 170.9 1642.86 170.9H1616.58Z" fill="black"/>
<path d="M1435.98 468.979C1410.38 468.979 1389.9 460.499 1374.54 443.539C1359.5 426.259 1351.98 402.419 1351.98 372.019V207.859H1375.86C1390.77 207.859 1402.86 219.948 1402.86 234.859V359.059C1402.86 382.099 1406.86 399.059 1414.86 409.939C1422.86 420.819 1435.02 426.259 1451.34 426.259C1469.9 426.259 1484.3 420.339 1494.54 408.499C1505.1 396.339 1510.38 379.379 1510.38 357.619V207.859H1561.26V463.219H1540.35C1525.59 463.219 1513.57 451.367 1513.36 436.608L1512.78 396.499L1519.98 399.379C1515.5 421.779 1506.06 439.059 1491.66 451.219C1477.26 463.059 1458.7 468.979 1435.98 468.979Z" fill="black"/>
<path d="M1081.63 468.98C1056.99 468.98 1035.55 463.54 1017.31 452.66C999.394 441.78 985.474 426.26 975.554 406.1C965.634 385.94 960.674 362.42 960.674 335.54C960.674 308.66 965.634 285.3 975.554 265.46C985.474 245.3 999.234 229.78 1016.83 218.9C1034.75 207.7 1055.87 202.1 1080.19 202.1C1103.55 202.1 1124.03 207.54 1141.63 218.42C1159.23 228.98 1172.83 244.34 1182.43 264.5C1192.35 284.66 1197.31 308.98 1197.31 337.46V350.42H1013.95C1015.23 375.38 1021.79 394.1 1033.63 406.58C1045.79 419.06 1061.95 425.3 1082.11 425.3C1097.47 425.3 1109.95 421.78 1119.55 414.74C1123.85 411.687 1127.61 408.184 1130.83 404.23C1138.47 394.849 1149.01 386.95 1161.08 387.718L1193.47 389.78C1186.75 413.46 1173.47 432.66 1153.63 447.38C1134.11 461.78 1110.11 468.98 1081.63 468.98ZM1013.95 312.02H1143.07C1141.47 289.3 1134.91 272.5 1123.39 261.62C1112.19 250.74 1097.79 245.3 1080.19 245.3C1062.27 245.3 1047.39 251.06 1035.55 262.58C1024.03 273.78 1016.83 290.26 1013.95 312.02Z" fill="black"/>
<path d="M821.715 468.98C797.075 468.98 775.635 463.54 757.395 452.66C739.475 441.78 725.395 426.26 715.155 406.1C705.235 385.94 700.275 362.42 700.275 335.54C700.275 308.66 705.235 285.3 715.155 265.46C725.395 245.3 739.475 229.78 757.395 218.9C775.635 207.7 797.075 202.1 821.715 202.1C842.195 202.1 860.435 205.78 876.435 213.14C892.755 220.18 906.035 230.58 916.275 244.34C926.515 258.1 932.915 274.9 935.475 294.74L907.111 296.287C893.245 297.043 881.896 286.575 874.968 274.54C871.612 268.709 867.301 263.762 862.035 259.7C851.155 250.74 837.715 246.26 821.715 246.26C800.275 246.26 783.475 254.26 771.315 270.26C759.155 285.94 753.075 307.7 753.075 335.54C753.075 363.38 759.155 385.3 771.315 401.3C783.475 416.98 800.275 424.82 821.715 424.82C837.715 424.82 851.155 420.34 862.035 411.38C867.784 406.617 872.394 400.632 875.866 393.424C881.964 380.768 893.469 370.208 907.496 370.973L935.475 372.5C932.915 392.02 926.515 408.98 916.275 423.38C906.355 437.78 893.235 448.98 876.915 456.98C860.915 464.98 842.515 468.98 821.715 468.98Z" fill="black"/>
<path d="M447.721 463.22V207.86H468.031C482.646 207.86 494.608 219.49 495.02 234.099L496.201 276.02L489.961 272.66C492.841 256.02 498.281 242.58 506.281 232.34C514.281 222.1 524.041 214.58 535.561 209.78C547.081 204.66 559.561 202.1 573.001 202.1C592.201 202.1 608.041 206.42 620.521 215.06C633.321 223.38 642.921 234.9 649.321 249.62C656.041 264.02 659.401 280.5 659.401 299.06V463.22H635.521C620.609 463.22 608.521 451.131 608.521 436.22V314.42C608.521 299.38 606.921 286.74 603.721 276.5C600.521 266.26 595.241 258.42 587.881 252.98C580.521 247.54 570.921 244.82 559.081 244.82C541.161 244.82 526.601 250.74 515.401 262.58C504.201 274.42 498.601 291.7 498.601 314.42V463.22H447.721Z" fill="black"/>
<path d="M282.163 468.98C257.843 468.98 236.563 463.54 218.323 452.66C200.083 441.78 185.843 426.26 175.603 406.1C165.683 385.94 160.723 362.42 160.723 335.54C160.723 308.34 165.683 284.82 175.603 264.98C185.843 245.14 200.083 229.78 218.323 218.9C236.563 207.7 257.843 202.1 282.163 202.1C306.483 202.1 327.603 207.7 345.523 218.9C363.763 229.78 377.843 245.14 387.763 264.98C398.003 284.82 403.123 308.34 403.123 335.54C403.123 362.42 398.003 385.94 387.763 406.1C377.843 426.26 363.763 441.78 345.523 452.66C327.603 463.54 306.483 468.98 282.163 468.98ZM282.163 424.82C303.603 424.82 320.243 416.98 332.083 401.3C344.243 385.3 350.323 363.38 350.323 335.54C350.323 307.7 344.243 285.94 332.083 270.26C320.243 254.26 303.603 246.26 282.163 246.26C260.723 246.26 243.923 254.26 231.763 270.26C219.603 285.94 213.523 307.7 213.523 335.54C213.523 363.38 219.603 385.3 231.763 401.3C243.923 416.98 260.723 424.82 282.163 424.82Z" fill="black"/>
</svg>
