<svg width="3922" height="589" viewBox="0 0 3922 589" fill="none" xmlns="http://www.w3.org/2000/svg">
<path d="M232.04 471.96C210.28 471.96 191.24 466.52 174.92 455.64C158.92 444.76 146.6 429.24 137.96 409.08C129.32 388.92 125 365.4 125 338.52C125 311.64 129.32 288.12 137.96 267.96C146.6 247.8 158.92 232.28 174.92 221.4C191.24 210.52 210.28 205.08 232.04 205.08C249.64 205.08 265.16 208.76 278.6 216.12C292.36 223.48 302.76 233.72 309.8 246.84V152.4C309.8 137.488 321.888 125.4 336.8 125.4H360.68V466.2H339.646C325.128 466.2 313.209 454.72 312.665 440.212L312.2 427.8C305.16 441.56 294.44 452.44 280.04 460.44C265.96 468.12 249.96 471.96 232.04 471.96ZM245.48 427.8C258.92 427.8 270.44 424.28 280.04 417.24C289.96 410.2 297.32 400.12 302.12 387C307.24 373.56 309.8 357.4 309.8 338.52C309.8 319.64 307.24 303.48 302.12 290.04C297.32 276.6 290.12 266.52 280.52 259.8C270.92 252.76 259.24 249.24 245.48 249.24C224.68 249.24 208.2 257.24 196.04 273.24C183.88 288.92 177.8 310.68 177.8 338.52C177.8 366.04 183.88 387.8 196.04 403.8C208.52 419.8 225 427.8 245.48 427.8Z" fill="white"/>
<path d="M528.86 471.96C504.54 471.96 483.26 466.52 465.02 455.64C446.78 444.76 432.7 429.24 422.78 409.08C412.86 388.92 407.9 365.4 407.9 338.52C407.9 311.96 412.86 288.6 422.78 268.44C432.7 247.96 446.62 232.28 464.54 221.4C482.46 210.52 503.42 205.08 527.42 205.08C550.78 205.08 571.26 210.52 588.86 221.4C606.46 231.96 620.06 247.48 629.66 267.96C639.58 288.12 644.54 312.28 644.54 340.44V353.4H461.18C462.14 377.72 468.54 396.28 480.38 409.08C492.54 421.88 508.86 428.28 529.34 428.28C544.38 428.28 556.86 424.92 566.78 418.2C571.141 415.246 574.945 411.735 578.193 407.668C585.84 398.091 596.421 389.942 608.653 390.721L640.7 392.76C633.98 417.08 620.54 436.44 600.38 450.84C580.54 464.92 556.7 471.96 528.86 471.96ZM590.3 315C588.7 292.92 582.3 276.28 571.1 265.08C560.22 253.88 545.66 248.28 527.42 248.28C509.18 248.28 494.14 254.04 482.3 265.56C470.78 277.08 463.74 293.56 461.18 315H590.3Z" fill="white"/>
<path d="M789.114 471.96C765.754 471.96 745.594 468.44 728.634 461.4C711.994 454.04 699.034 443.96 689.754 431.16C680.794 418.04 675.674 402.84 674.394 385.56L702.929 384.263C716.725 383.636 727.871 394.224 735.278 405.879C738.035 410.216 741.42 414.003 745.434 417.24C755.674 425.24 770.234 429.24 789.114 429.24C805.434 429.24 818.074 426.68 827.034 421.56C836.314 416.12 840.954 407.96 840.954 397.08C840.954 390.68 839.354 385.4 836.154 381.24C832.954 377.08 827.034 373.56 818.394 370.68C809.754 367.48 796.954 364.44 779.994 361.56C755.034 357.08 735.194 351.64 720.474 345.24C706.074 338.52 695.834 330.36 689.754 320.76C683.674 310.84 680.634 298.68 680.634 284.28C680.634 260.6 689.594 241.56 707.514 227.16C725.434 212.44 750.554 205.08 782.874 205.08C814.234 205.08 838.874 212.92 856.794 228.6C875.034 243.96 886.074 264.12 889.914 289.08L861.283 290.656C847.734 291.402 836.583 281.258 828.908 270.068C826.249 266.191 823.064 262.768 819.354 259.8C810.074 251.8 797.754 247.8 782.394 247.8C766.394 247.8 754.234 251 745.914 257.4C737.594 263.48 733.434 271.8 733.434 282.36C733.434 290.04 735.194 296.28 738.714 301.08C742.554 305.88 748.474 309.88 756.474 313.08C764.794 315.96 776.154 318.52 790.554 320.76C817.114 325.24 837.754 330.68 852.474 337.08C867.194 343.48 877.754 351.48 884.154 361.08C890.554 370.36 893.754 382.2 893.754 396.6C893.754 420.28 883.994 438.84 864.474 452.28C845.274 465.4 820.154 471.96 789.114 471.96Z" fill="white"/>
<path d="M932.799 237.84C932.799 222.928 944.887 210.84 959.799 210.84H983.679V439.2C983.679 454.112 971.59 466.2 956.679 466.2H932.799V237.84ZM931.839 150C931.839 135.088 943.927 123 958.839 123H985.119V146.88C985.119 161.792 973.03 173.88 958.119 173.88H931.839V150Z" fill="white"/>
<path d="M1149.7 543.96C1129.86 543.96 1112.1 540.92 1096.42 534.84C1081.06 528.76 1068.42 520.12 1058.5 508.92C1048.58 498.04 1041.86 485.24 1038.34 470.52L1069.84 468.515C1082.33 467.721 1092.92 476.438 1101.26 485.76C1103.78 488.571 1106.64 491.011 1109.86 493.08C1119.14 498.84 1132.42 501.72 1149.7 501.72C1171.14 501.72 1187.3 497.24 1198.18 488.28C1209.38 479.32 1214.98 465.72 1214.98 447.48V410.52C1208.58 423.64 1198.66 434.04 1185.22 441.72C1172.1 449.4 1157.22 453.24 1140.58 453.24C1119.46 453.24 1100.58 448.12 1083.94 437.88C1067.3 427.32 1054.18 412.76 1044.58 394.2C1035.3 375.32 1030.66 353.72 1030.66 329.4C1030.66 305.08 1035.3 283.64 1044.58 265.08C1053.86 246.2 1066.66 231.48 1082.98 220.92C1099.3 210.36 1118.02 205.08 1139.14 205.08C1157.06 205.08 1172.9 209.24 1186.66 217.56C1200.74 225.56 1210.82 236.76 1216.9 251.16V237.84C1216.9 222.928 1228.99 210.84 1243.9 210.84H1266.34V446.04C1266.34 477.08 1255.94 501.08 1235.14 518.04C1214.34 535.32 1185.86 543.96 1149.7 543.96ZM1148.74 410.04C1162.18 410.04 1173.86 406.84 1183.78 400.44C1193.7 393.72 1201.38 384.28 1206.82 372.12C1212.58 359.96 1215.46 345.56 1215.46 328.92C1215.46 312.6 1212.74 298.36 1207.3 286.2C1202.18 274.04 1194.5 264.76 1184.26 258.36C1174.02 251.64 1162.18 248.28 1148.74 248.28C1128.58 248.28 1112.58 255.64 1100.74 270.36C1089.22 284.76 1083.46 304.28 1083.46 328.92C1083.46 353.88 1089.38 373.72 1101.22 388.44C1113.06 402.84 1128.9 410.04 1148.74 410.04Z" fill="white"/>
<path d="M1328.44 210.84H1348.75C1363.37 210.84 1375.33 222.47 1375.74 237.08L1376.92 279L1370.68 275.64C1374.84 251.96 1384.28 234.36 1399 222.84C1414.04 211 1432.28 205.08 1453.72 205.08C1481.24 205.08 1502.52 214.04 1517.56 231.96C1532.6 249.56 1540.12 272.92 1540.12 302.04V466.2H1516.24C1501.33 466.2 1489.24 454.112 1489.24 439.2V317.4C1489.24 294.36 1485.4 277.08 1477.72 265.56C1470.04 253.72 1457.4 247.8 1439.8 247.8C1421.24 247.8 1406.52 253.88 1395.64 266.04C1384.76 278.2 1379.32 295.32 1379.32 317.4V466.2H1328.44V210.84Z" fill="white"/>
<path d="M1815.64 471.96C1791.32 471.96 1770.04 466.52 1751.8 455.64C1733.56 444.76 1719.48 429.24 1709.56 409.08C1699.64 388.92 1694.68 365.4 1694.68 338.52C1694.68 311.96 1699.64 288.6 1709.56 268.44C1719.48 247.96 1733.4 232.28 1751.32 221.4C1769.24 210.52 1790.2 205.08 1814.2 205.08C1837.56 205.08 1858.04 210.52 1875.64 221.4C1893.24 231.96 1906.84 247.48 1916.44 267.96C1926.36 288.12 1931.32 312.28 1931.32 340.44V353.4H1747.96C1748.92 377.72 1755.32 396.28 1767.16 409.08C1779.32 421.88 1795.64 428.28 1816.12 428.28C1831.16 428.28 1843.64 424.92 1853.56 418.2C1857.92 415.246 1861.72 411.735 1864.97 407.668C1872.62 398.091 1883.2 389.942 1895.43 390.721L1927.48 392.76C1920.76 417.08 1907.32 436.44 1887.16 450.84C1867.32 464.92 1843.48 471.96 1815.64 471.96ZM1877.08 315C1875.48 292.92 1869.08 276.28 1857.88 265.08C1847 253.88 1832.44 248.28 1814.2 248.28C1795.96 248.28 1780.92 254.04 1769.08 265.56C1757.56 277.08 1750.52 293.56 1747.96 315H1877.08Z" fill="white"/>
<path d="M1976.05 210.84H1996.36C2010.97 210.84 2022.94 222.47 2023.35 237.08L2024.53 279L2018.29 275.64C2022.45 251.96 2031.89 234.36 2046.61 222.84C2061.65 211 2079.89 205.08 2101.33 205.08C2128.85 205.08 2150.13 214.04 2165.17 231.96C2180.21 249.56 2187.73 272.92 2187.73 302.04V466.2H2163.85C2148.94 466.2 2136.85 454.112 2136.85 439.2V317.4C2136.85 294.36 2133.01 277.08 2125.33 265.56C2117.65 253.72 2105.01 247.8 2087.41 247.8C2068.85 247.8 2054.13 253.88 2043.25 266.04C2032.37 278.2 2026.93 295.32 2026.93 317.4V466.2H1976.05V210.84Z" fill="white"/>
<path d="M2347.64 543.96C2327.8 543.96 2310.04 540.92 2294.36 534.84C2279 528.76 2266.36 520.12 2256.44 508.92C2246.52 498.04 2239.8 485.24 2236.28 470.52L2267.78 468.515C2280.27 467.721 2290.86 476.438 2299.2 485.76C2301.72 488.571 2304.58 491.011 2307.8 493.08C2317.08 498.84 2330.36 501.72 2347.64 501.72C2369.08 501.72 2385.24 497.24 2396.12 488.28C2407.32 479.32 2412.92 465.72 2412.92 447.48V410.52C2406.52 423.64 2396.6 434.04 2383.16 441.72C2370.04 449.4 2355.16 453.24 2338.52 453.24C2317.4 453.24 2298.52 448.12 2281.88 437.88C2265.24 427.32 2252.12 412.76 2242.52 394.2C2233.24 375.32 2228.6 353.72 2228.6 329.4C2228.6 305.08 2233.24 283.64 2242.52 265.08C2251.8 246.2 2264.6 231.48 2280.92 220.92C2297.24 210.36 2315.96 205.08 2337.08 205.08C2355 205.08 2370.84 209.24 2384.6 217.56C2398.68 225.56 2408.76 236.76 2414.84 251.16V237.84C2414.84 222.928 2426.93 210.84 2441.84 210.84H2464.28V446.04C2464.28 477.08 2453.88 501.08 2433.08 518.04C2412.28 535.32 2383.8 543.96 2347.64 543.96ZM2346.68 410.04C2360.12 410.04 2371.8 406.84 2381.72 400.44C2391.64 393.72 2399.32 384.28 2404.76 372.12C2410.52 359.96 2413.4 345.56 2413.4 328.92C2413.4 312.6 2410.68 298.36 2405.24 286.2C2400.12 274.04 2392.44 264.76 2382.2 258.36C2371.96 251.64 2360.12 248.28 2346.68 248.28C2326.52 248.28 2310.52 255.64 2298.68 270.36C2287.16 284.76 2281.4 304.28 2281.4 328.92C2281.4 353.88 2287.32 373.72 2299.16 388.44C2311 402.84 2326.84 410.04 2346.68 410.04Z" fill="white"/>
<path d="M2520.29 237.84C2520.29 222.928 2532.37 210.84 2547.29 210.84H2571.17V439.2C2571.17 454.112 2559.08 466.2 2544.17 466.2H2520.29V237.84ZM2519.33 150C2519.33 135.088 2531.41 123 2546.33 123H2572.61V146.88C2572.61 161.792 2560.52 173.88 2545.61 173.88H2519.33V150Z" fill="white"/>
<path d="M2626.94 210.84H2647.25C2661.86 210.84 2673.82 222.47 2674.24 237.08L2675.42 279L2669.18 275.64C2673.34 251.96 2682.78 234.36 2697.5 222.84C2712.54 211 2730.78 205.08 2752.22 205.08C2779.74 205.08 2801.02 214.04 2816.06 231.96C2831.1 249.56 2838.62 272.92 2838.62 302.04V466.2H2814.74C2799.82 466.2 2787.74 454.112 2787.74 439.2V317.4C2787.74 294.36 2783.9 277.08 2776.22 265.56C2768.54 253.72 2755.9 247.8 2738.3 247.8C2719.74 247.8 2705.02 253.88 2694.14 266.04C2683.26 278.2 2677.82 295.32 2677.82 317.4V466.2H2626.94V210.84Z" fill="white"/>
<path d="M3000.45 471.96C2976.13 471.96 2954.85 466.52 2936.61 455.64C2918.37 444.76 2904.29 429.24 2894.37 409.08C2884.45 388.92 2879.49 365.4 2879.49 338.52C2879.49 311.96 2884.45 288.6 2894.37 268.44C2904.29 247.96 2918.21 232.28 2936.13 221.4C2954.05 210.52 2975.01 205.08 2999.01 205.08C3022.37 205.08 3042.85 210.52 3060.45 221.4C3078.05 231.96 3091.65 247.48 3101.25 267.96C3111.17 288.12 3116.13 312.28 3116.13 340.44V353.4H2932.77C2933.73 377.72 2940.13 396.28 2951.97 409.08C2964.13 421.88 2980.45 428.28 3000.93 428.28C3015.97 428.28 3028.45 424.92 3038.37 418.2C3042.73 415.246 3046.53 411.735 3049.78 407.668C3057.43 398.091 3068.01 389.942 3080.24 390.721L3112.29 392.76C3105.57 417.08 3092.13 436.44 3071.97 450.84C3052.13 464.92 3028.29 471.96 3000.45 471.96ZM3061.89 315C3060.29 292.92 3053.89 276.28 3042.69 265.08C3031.81 253.88 3017.25 248.28 2999.01 248.28C2980.77 248.28 2965.73 254.04 2953.89 265.56C2942.37 277.08 2935.33 293.56 2932.77 315H3061.89Z" fill="white"/>
<path d="M3266.94 471.96C3242.62 471.96 3221.34 466.52 3203.1 455.64C3184.86 444.76 3170.78 429.24 3160.86 409.08C3150.94 388.92 3145.98 365.4 3145.98 338.52C3145.98 311.96 3150.94 288.6 3160.86 268.44C3170.78 247.96 3184.7 232.28 3202.62 221.4C3220.54 210.52 3241.5 205.08 3265.5 205.08C3288.86 205.08 3309.34 210.52 3326.94 221.4C3344.54 231.96 3358.14 247.48 3367.74 267.96C3377.66 288.12 3382.62 312.28 3382.62 340.44V353.4H3199.26C3200.22 377.72 3206.62 396.28 3218.46 409.08C3230.62 421.88 3246.94 428.28 3267.42 428.28C3282.46 428.28 3294.94 424.92 3304.86 418.2C3309.22 415.246 3313.03 411.735 3316.27 407.668C3323.92 398.091 3334.5 389.942 3346.73 390.721L3378.78 392.76C3372.06 417.08 3358.62 436.44 3338.46 450.84C3318.62 464.92 3294.78 471.96 3266.94 471.96ZM3328.38 315C3326.78 292.92 3320.38 276.28 3309.18 265.08C3298.3 253.88 3283.74 248.28 3265.5 248.28C3247.26 248.28 3232.22 254.04 3220.38 265.56C3208.86 277.08 3201.82 293.56 3199.26 315H3328.38Z" fill="white"/>
<path d="M3427.35 210.84H3447.67C3462.28 210.84 3474.24 222.467 3474.66 237.074L3475.84 278.52L3471.52 277.08C3475.04 254.36 3482.08 237.72 3492.64 227.16C3503.2 216.28 3517.76 210.84 3536.32 210.84H3560.8V231.96C3560.8 245.48 3549.84 256.44 3536.32 256.44V256.44C3523.2 256.44 3512.32 258.68 3503.68 263.16C3495.36 267.32 3488.96 273.72 3484.48 282.36C3480.32 291 3478.24 302.04 3478.24 315.48V439.2C3478.24 454.112 3466.15 466.2 3451.24 466.2H3427.35V210.84Z" fill="white"/>
<path d="M3692.44 471.96C3669.08 471.96 3648.92 468.44 3631.96 461.4C3615.32 454.04 3602.36 443.96 3593.08 431.16C3584.12 418.04 3579 402.84 3577.72 385.56L3606.25 384.263C3620.05 383.636 3631.2 394.224 3638.6 405.879C3641.36 410.216 3644.75 414.003 3648.76 417.24C3659 425.24 3673.56 429.24 3692.44 429.24C3708.76 429.24 3721.4 426.68 3730.36 421.56C3739.64 416.12 3744.28 407.96 3744.28 397.08C3744.28 390.68 3742.68 385.4 3739.48 381.24C3736.28 377.08 3730.36 373.56 3721.72 370.68C3713.08 367.48 3700.28 364.44 3683.32 361.56C3658.36 357.08 3638.52 351.64 3623.8 345.24C3609.4 338.52 3599.16 330.36 3593.08 320.76C3587 310.84 3583.96 298.68 3583.96 284.28C3583.96 260.6 3592.92 241.56 3610.84 227.16C3628.76 212.44 3653.88 205.08 3686.2 205.08C3717.56 205.08 3742.2 212.92 3760.12 228.6C3778.36 243.96 3789.4 264.12 3793.24 289.08L3764.61 290.656C3751.06 291.402 3739.91 281.258 3732.23 270.068C3729.57 266.191 3726.39 262.768 3722.68 259.8C3713.4 251.8 3701.08 247.8 3685.72 247.8C3669.72 247.8 3657.56 251 3649.24 257.4C3640.92 263.48 3636.76 271.8 3636.76 282.36C3636.76 290.04 3638.52 296.28 3642.04 301.08C3645.88 305.88 3651.8 309.88 3659.8 313.08C3668.12 315.96 3679.48 318.52 3693.88 320.76C3720.44 325.24 3741.08 330.68 3755.8 337.08C3770.52 343.48 3781.08 351.48 3787.48 361.08C3793.88 370.36 3797.08 382.2 3797.08 396.6C3797.08 420.28 3787.32 438.84 3767.8 452.28C3748.6 465.4 3723.48 471.96 3692.44 471.96Z" fill="white"/>
</svg>
