<svg width="1631" height="589" viewBox="0 0 1631 589" fill="none" xmlns="http://www.w3.org/2000/svg">
<path d="M1372.3 206.541H1392.61C1407.23 206.541 1419.19 218.168 1419.6 232.775L1420.78 274.221L1416.46 272.781C1419.98 250.061 1427.02 233.421 1437.58 222.861C1448.14 211.981 1462.7 206.541 1481.26 206.541H1505.74V227.661C1505.74 241.181 1494.78 252.141 1481.26 252.141C1468.14 252.141 1457.26 254.381 1448.62 258.861C1440.3 263.021 1433.9 269.421 1429.42 278.061C1425.26 286.701 1423.18 297.741 1423.18 311.181V434.901C1423.18 449.813 1411.09 461.901 1396.18 461.901H1372.3V206.541Z" fill="white"/>
<path d="M1211.88 467.661C1187.56 467.661 1166.28 462.221 1148.04 451.341C1129.8 440.461 1115.72 424.941 1105.8 404.781C1095.88 384.621 1090.92 361.101 1090.92 334.221C1090.92 307.661 1095.88 284.301 1105.8 264.141C1115.72 243.661 1129.64 227.981 1147.56 217.101C1165.48 206.221 1186.44 200.781 1210.44 200.781C1233.8 200.781 1254.28 206.221 1271.88 217.101C1289.48 227.661 1303.08 243.181 1312.68 263.661C1322.6 283.821 1327.56 307.981 1327.56 336.141V349.101H1144.2C1145.16 373.421 1151.56 391.981 1163.4 404.781C1175.56 417.581 1191.88 423.981 1212.36 423.981C1227.4 423.981 1239.88 420.621 1249.8 413.901C1254.16 410.947 1257.97 407.437 1261.21 403.37C1268.86 393.792 1279.44 385.644 1291.68 386.422L1323.72 388.461C1317 412.781 1303.56 432.141 1283.4 446.541C1263.56 460.621 1239.72 467.661 1211.88 467.661ZM1273.32 310.701C1271.72 288.621 1265.32 271.981 1254.12 260.781C1243.24 249.581 1228.68 243.981 1210.44 243.981C1192.2 243.981 1177.16 249.741 1165.32 261.261C1153.8 272.781 1146.76 289.261 1144.2 310.701H1273.32Z" fill="white"/>
<path d="M1032.34 461.902C1014.74 461.902 1000.98 457.582 991.064 448.942C981.144 439.982 976.184 426.222 976.184 407.662L976.664 121.102H1000.54C1015.46 121.102 1027.54 133.19 1027.54 148.102V402.862C1027.54 408.622 1028.98 412.942 1031.86 415.822C1035.06 418.702 1039.38 420.142 1044.82 420.142C1056.22 420.142 1065.46 429.382 1065.46 440.782V461.902H1032.34Z" fill="white"/>
<path d="M695.16 206.541H716.861C731.496 206.541 743.467 218.201 743.852 232.831L744.6 261.261L738.84 258.381C744.92 239.821 755.32 225.581 770.04 215.661C784.76 205.741 801.88 200.781 821.4 200.781C845.4 200.781 865.56 206.701 881.88 218.541C898.52 230.381 910.84 246.541 918.84 267.021C926.84 287.181 930.84 309.581 930.84 334.221C930.84 358.861 926.84 381.421 918.84 401.901C910.84 422.061 898.52 438.061 881.88 449.901C865.56 461.741 845.4 467.661 821.4 467.661C808.6 467.661 796.6 465.421 785.4 460.941C774.2 456.461 764.6 450.061 756.6 441.741C748.92 433.421 743.48 423.821 740.28 412.941L746.04 407.181V506.901C746.04 521.813 733.952 533.901 719.04 533.901H695.16V206.541ZM812.28 423.501C832.76 423.501 848.76 415.661 860.28 399.981C872.12 384.301 878.04 362.381 878.04 334.221C878.04 306.061 872.12 284.141 860.28 268.461C848.76 252.781 832.76 244.941 812.28 244.941C798.84 244.941 787 248.301 776.76 255.021C766.84 261.741 759.16 271.821 753.72 285.261C748.6 298.381 746.04 314.701 746.04 334.221C746.04 353.741 748.6 370.221 753.72 383.661C759.16 396.781 766.84 406.701 776.76 413.421C786.68 420.141 798.52 423.501 812.28 423.501Z" fill="white"/>
<path d="M529.6 467.661C505.28 467.661 484 462.221 465.76 451.341C447.52 440.461 433.28 424.941 423.04 404.781C413.12 384.621 408.16 361.101 408.16 334.221C408.16 307.341 413.12 283.821 423.04 263.661C433.28 243.501 447.52 227.981 465.76 217.101C484 206.221 505.28 200.781 529.6 200.781C553.6 200.781 574.72 206.221 592.96 217.101C611.2 227.981 625.28 243.501 635.2 263.661C645.44 283.821 650.56 307.341 650.56 334.221C650.56 361.101 645.44 384.621 635.2 404.781C625.28 424.941 611.2 440.461 592.96 451.341C574.72 462.221 553.6 467.661 529.6 467.661ZM529.6 423.501C551.04 423.501 567.68 415.661 579.52 399.981C591.68 383.981 597.76 362.061 597.76 334.221C597.76 306.381 591.68 284.621 579.52 268.941C567.68 252.941 551.04 244.941 529.6 244.941C508.16 244.941 491.36 252.781 479.2 268.461C467.04 284.141 460.96 306.061 460.96 334.221C460.96 362.381 467.04 384.301 479.2 399.981C491.36 415.661 508.16 423.501 529.6 423.501Z" fill="white"/>
<path d="M232.302 467.662C210.542 467.662 191.502 462.222 175.182 451.342C159.182 440.462 146.862 424.942 138.222 404.782C129.582 384.622 125.262 361.102 125.262 334.222C125.262 307.342 129.582 283.822 138.222 263.662C146.862 243.502 159.182 227.982 175.182 217.102C191.502 206.222 210.542 200.782 232.302 200.782C249.902 200.782 265.422 204.462 278.862 211.822C292.622 219.182 303.022 229.422 310.062 242.542V148.102C310.062 133.19 322.15 121.102 337.062 121.102H360.942V461.902H339.908C325.39 461.902 313.471 450.421 312.927 435.913L312.462 423.502C305.422 437.262 294.702 448.142 280.302 456.142C266.222 463.822 250.222 467.662 232.302 467.662ZM245.742 423.502C259.182 423.502 270.702 419.982 280.302 412.942C290.222 405.902 297.582 395.822 302.382 382.702C307.502 369.262 310.062 353.102 310.062 334.222C310.062 315.342 307.502 299.182 302.382 285.742C297.582 272.302 290.382 262.222 280.782 255.502C271.182 248.462 259.502 244.942 245.742 244.942C224.942 244.942 208.462 252.942 196.302 268.942C184.142 284.622 178.062 306.382 178.062 334.222C178.062 361.742 184.142 383.502 196.302 399.502C208.782 415.502 225.262 423.502 245.742 423.502Z" fill="white"/>
</svg>
