<svg width="1453" height="589" viewBox="0 0 1453 589" fill="none" xmlns="http://www.w3.org/2000/svg">
<path d="M245.96 467.78C221.64 467.78 200.36 462.34 182.12 451.46C163.88 440.58 149.8 425.06 139.88 404.9C129.96 384.74 125 361.22 125 334.34C125 307.78 129.96 284.42 139.88 264.26C149.8 243.78 163.72 228.1 181.64 217.22C199.56 206.34 220.52 200.9 244.52 200.9C267.88 200.9 288.36 206.34 305.96 217.22C323.56 227.78 337.16 243.3 346.76 263.78C356.68 283.94 361.64 308.1 361.64 336.26V349.22H178.28C179.24 373.54 185.64 392.1 197.48 404.9C209.64 417.7 225.96 424.1 246.44 424.1C261.48 424.1 273.96 420.74 283.88 414.02C288.241 411.066 292.045 407.555 295.293 403.488C302.941 393.911 313.521 385.762 325.753 386.54L357.8 388.58C351.08 412.9 337.64 432.26 317.48 446.66C297.64 460.74 273.8 467.78 245.96 467.78ZM307.4 310.82C305.8 288.74 299.4 272.1 288.2 260.9C277.32 249.7 262.76 244.1 244.52 244.1C226.28 244.1 211.24 249.86 199.4 261.38C187.88 272.9 180.84 289.38 178.28 310.82H307.4Z" fill="white"/>
<path d="M406.374 206.66H426.684C441.299 206.66 453.261 218.29 453.673 232.899L454.854 274.82L448.614 271.46C452.774 247.78 462.214 230.18 476.934 218.66C491.974 206.82 510.214 200.9 531.654 200.9C559.174 200.9 580.454 209.86 595.494 227.78C610.534 245.38 618.054 268.74 618.054 297.86V462.02H594.174C579.262 462.02 567.174 449.931 567.174 435.02V313.22C567.174 290.18 563.334 272.9 555.654 261.38C547.974 249.54 535.334 243.62 517.734 243.62C499.174 243.62 484.454 249.7 473.574 261.86C462.694 274.02 457.254 291.14 457.254 313.22V462.02H406.374V206.66Z" fill="white"/>
<path d="M671.461 206.66H691.776C706.39 206.66 718.351 218.286 718.765 232.894L719.941 274.34L715.621 272.9C719.141 250.18 726.181 233.54 736.741 222.98C747.301 212.1 761.861 206.66 780.421 206.66H804.901V227.78C804.901 241.3 793.941 252.26 780.421 252.26V252.26C767.301 252.26 756.421 254.5 747.781 258.98C739.461 263.14 733.061 269.54 728.581 278.18C724.421 286.82 722.341 297.86 722.341 311.3V435.02C722.341 449.931 710.253 462.02 695.341 462.02H671.461V206.66Z" fill="white"/>
<path d="M943.265 467.78C918.945 467.78 897.665 462.34 879.425 451.46C861.185 440.58 846.945 425.06 836.705 404.9C826.785 384.74 821.825 361.22 821.825 334.34C821.825 307.46 826.785 283.94 836.705 263.78C846.945 243.62 861.185 228.1 879.425 217.22C897.665 206.34 918.945 200.9 943.265 200.9C967.265 200.9 988.385 206.34 1006.62 217.22C1024.87 228.1 1038.94 243.62 1048.86 263.78C1059.1 283.94 1064.23 307.46 1064.23 334.34C1064.23 361.22 1059.1 384.74 1048.86 404.9C1038.94 425.06 1024.87 440.58 1006.62 451.46C988.385 462.34 967.265 467.78 943.265 467.78ZM943.265 423.62C964.705 423.62 981.345 415.78 993.185 400.1C1005.34 384.1 1011.42 362.18 1011.42 334.34C1011.42 306.5 1005.34 284.74 993.185 269.06C981.345 253.06 964.705 245.06 943.265 245.06C921.825 245.06 905.025 252.9 892.865 268.58C880.705 284.26 874.625 306.18 874.625 334.34C874.625 362.5 880.705 384.42 892.865 400.1C905.025 415.78 921.825 423.62 943.265 423.62Z" fill="white"/>
<path d="M1165.45 462.02C1147.85 462.02 1134.09 457.7 1124.17 449.06C1114.25 440.1 1109.29 426.34 1109.29 407.78L1109.77 121.22H1133.65C1148.56 121.22 1160.65 133.308 1160.65 148.22V402.98C1160.65 408.74 1162.09 413.06 1164.97 415.94C1168.17 418.82 1172.49 420.26 1177.93 420.26V420.26C1189.33 420.26 1198.57 429.501 1198.57 440.9V462.02H1165.45Z" fill="white"/>
<path d="M1294.6 462.02C1277 462.02 1263.24 457.7 1253.32 449.06C1243.4 440.1 1238.44 426.34 1238.44 407.78L1238.92 121.22H1262.8C1277.71 121.22 1289.8 133.308 1289.8 148.22V402.98C1289.8 408.74 1291.24 413.06 1294.12 415.94C1297.32 418.82 1301.64 420.26 1307.08 420.26V420.26C1318.48 420.26 1327.72 429.501 1327.72 440.9V462.02H1294.6Z" fill="white"/>
</svg>
