<svg width="32" height="32" viewBox="0 0 32 32" fill="none" xmlns="http://www.w3.org/2000/svg">
<path d="M5.34434 18.3679C4.03659 17.0602 4.03659 14.9399 5.34434 13.6321L9.06533 9.91113L14.4777 15.3235C14.8513 15.6971 14.8513 16.3029 14.4777 16.6766L9.06533 22.0889L5.34434 18.3679Z" fill="#2D69FA"/>
<path d="M9.911 9.06545L13.632 5.34446C14.9397 4.03671 17.06 4.03671 18.3678 5.34446L22.0888 9.06545L16.6764 14.4778C16.3028 14.8514 15.697 14.8514 15.3233 14.4778L9.911 9.06545Z" fill="#2D69FA"/>
<path d="M9.911 22.9346L15.3233 17.5222C15.697 17.1486 16.3028 17.1486 16.6764 17.5222L22.0888 22.9346L18.3678 26.6556C17.06 27.9633 14.9397 27.9633 13.632 26.6556L9.911 22.9346Z" fill="#2D69FA"/>
<path d="M17.5221 16.6766C17.1485 16.3029 17.1485 15.6971 17.5221 15.3235L22.9345 9.91113L26.6554 13.6321C27.9632 14.9399 27.9632 17.0602 26.6554 18.3679L22.9345 22.0889L17.5221 16.6766Z" fill="#2D69FA"/>
</svg>
