<svg width="590" height="589" viewBox="0 0 590 589" fill="none" xmlns="http://www.w3.org/2000/svg">
<path d="M81.6393 341.413C55.4536 315.228 55.4536 272.772 81.6393 246.587L156.146 172.08L264.52 280.453C272.002 287.935 272.002 300.065 264.52 307.547L156.146 415.92L81.6393 341.413Z" fill="black"/>
<path d="M173.08 155.146L247.587 80.6393C273.772 54.4536 316.228 54.4536 342.413 80.6393L416.92 155.146L308.547 263.52C301.065 271.002 288.935 271.002 281.453 263.52L173.08 155.146Z" fill="black"/>
<path d="M173.08 432.854L281.453 324.48C288.935 316.998 301.065 316.998 308.547 324.48L416.92 432.854L342.413 507.361C316.228 533.546 273.772 533.546 247.587 507.361L173.08 432.854Z" fill="black"/>
<path d="M325.48 307.547C317.998 300.065 317.998 287.935 325.48 280.453L433.854 172.08L508.361 246.587C534.546 272.772 534.546 315.228 508.361 341.413L433.854 415.92L325.48 307.547Z" fill="black"/>
</svg>
