<svg width="3524" height="589" viewBox="0 0 3524 589" fill="none" xmlns="http://www.w3.org/2000/svg">
<path d="M125 171.86H145.167C159.839 171.86 171.826 183.577 172.16 198.246L173 235.22L167.24 233.3C170.12 219.54 175.08 207.7 182.12 197.78C189.48 187.54 198.44 179.7 209 174.26C219.56 168.82 231.08 166.1 243.56 166.1C265.32 166.1 283.08 172.18 296.84 184.34C310.6 196.5 319.24 213.46 322.76 235.22H314.6C318.76 213.14 327.56 196.18 341 184.34C354.44 172.18 371.72 166.1 392.84 166.1C410.44 166.1 425.64 169.94 438.44 177.62C451.24 184.98 460.84 195.86 467.24 210.26C473.96 224.66 477.32 242.26 477.32 263.06V427.22H453.44C438.528 427.22 426.44 415.131 426.44 400.22V275.54C426.44 253.14 422.44 236.5 414.44 225.62C406.44 214.42 394.28 208.82 377.96 208.82C367.4 208.82 358.12 211.54 350.12 216.98C342.12 222.42 335.88 230.42 331.4 240.98C327.24 251.22 325.16 263.38 325.16 277.46V427.22H303.68C288.768 427.22 276.68 415.131 276.68 400.22V277.46C276.68 255.06 272.84 238.1 265.16 226.58C257.8 214.74 245.8 208.82 229.16 208.82C218.28 208.82 208.84 211.54 200.84 216.98C192.84 222.42 186.6 230.42 182.12 240.98C177.96 251.22 175.88 263.38 175.88 277.46V427.22H125V171.86Z" fill="white"/>
<path d="M607.411 432.98C580.851 432.98 559.571 426.9 543.571 414.74C527.891 402.26 520.051 385.14 520.051 363.38C520.051 341.62 526.611 324.5 539.731 312.02C552.851 299.54 573.491 290.58 601.651 285.14L689.491 268.34C689.491 248.5 684.851 233.78 675.571 224.18C666.611 214.26 653.011 209.3 634.771 209.3C618.771 209.3 605.971 212.98 596.371 220.34C592.375 223.27 588.934 226.81 586.047 230.96C578.479 241.839 567.449 251.401 554.224 250.559L524.371 248.66C529.171 222.74 541.171 202.58 560.371 188.18C579.891 173.46 604.691 166.1 634.771 166.1C669.011 166.1 695.091 175.22 713.011 193.46C731.251 211.7 740.371 237.62 740.371 271.22V370.58C740.371 376.66 741.491 380.98 743.731 383.54C745.971 385.78 749.491 386.9 754.291 386.9V386.9C759.328 386.9 763.411 390.983 763.411 396.02V427.22C761.171 427.54 758.291 427.86 754.771 428.18C751.571 428.5 748.211 428.66 744.691 428.66C727.091 428.66 713.971 424.5 705.331 416.18C697.011 407.54 692.851 393.14 692.851 372.98L698.131 375.38C694.611 392.02 684.371 405.78 667.411 416.66C650.451 427.54 630.451 432.98 607.411 432.98ZM616.051 392.66C631.091 392.66 644.051 389.78 654.931 384.02C666.131 377.94 674.611 369.62 680.371 359.06C686.451 348.5 689.491 336.5 689.491 323.06V306.74L615.091 321.14C600.051 324.02 589.171 328.5 582.451 334.58C576.051 340.66 572.851 348.66 572.851 358.58C572.851 369.46 576.531 377.94 583.891 384.02C591.571 389.78 602.291 392.66 616.051 392.66Z" fill="white"/>
<path d="M905.585 504.98C885.745 504.98 867.985 501.94 852.305 495.86C836.945 489.78 824.305 481.14 814.385 469.94C804.465 459.06 797.745 446.26 794.225 431.54L847.025 428.18C850.545 439.7 856.785 448.34 865.745 454.1C875.025 459.86 888.305 462.74 905.585 462.74C927.025 462.74 943.185 458.26 954.065 449.3C965.265 440.34 970.865 426.74 970.865 408.5V371.54C964.465 384.66 954.545 395.06 941.105 402.74C927.985 410.42 913.105 414.26 896.465 414.26C875.345 414.26 856.465 409.14 839.825 398.9C823.185 388.34 810.065 373.78 800.465 355.22C791.185 336.34 786.545 314.74 786.545 290.42C786.545 266.1 791.185 244.66 800.465 226.1C809.745 207.22 822.545 192.5 838.865 181.94C855.185 171.38 873.905 166.1 895.025 166.1C912.945 166.1 928.785 170.26 942.545 178.58C956.625 186.58 966.705 197.78 972.785 212.18V198.86C972.785 183.948 984.873 171.86 999.785 171.86H1022.22V407.06C1022.22 438.1 1011.83 462.1 991.025 479.06C970.225 496.34 941.745 504.98 905.585 504.98ZM904.625 371.06C918.065 371.06 929.745 367.86 939.665 361.46C949.585 354.74 957.265 345.3 962.705 333.14C968.465 320.98 971.345 306.58 971.345 289.94C971.345 273.62 968.625 259.38 963.185 247.22C958.065 235.06 950.385 225.78 940.145 219.38C929.905 212.66 918.065 209.3 904.625 209.3C884.465 209.3 868.465 216.66 856.625 231.38C845.105 245.78 839.345 265.3 839.345 289.94C839.345 314.9 845.265 334.74 857.105 349.46C868.945 363.86 884.785 371.06 904.625 371.06Z" fill="white"/>
<path d="M1078.23 198.86C1078.23 183.948 1090.32 171.86 1105.23 171.86H1129.11V400.22C1129.11 415.131 1117.02 427.22 1102.11 427.22H1078.23V198.86ZM1077.27 111.02C1077.27 96.1078 1089.36 84.0195 1104.27 84.0195H1130.55V107.9C1130.55 122.811 1118.46 134.9 1103.55 134.9H1077.27V111.02Z" fill="white"/>
<path d="M1297.54 432.98C1273.22 432.98 1251.93 427.54 1233.69 416.66C1215.45 405.78 1201.21 390.26 1190.97 370.1C1181.05 349.62 1176.09 326.1 1176.09 299.54C1176.09 272.98 1181.05 249.62 1190.97 229.46C1201.21 208.98 1215.45 193.3 1233.69 182.42C1251.93 171.54 1273.22 166.1 1297.54 166.1C1318.02 166.1 1336.26 169.78 1352.26 177.14C1368.58 184.18 1381.85 194.74 1392.09 208.82C1402.33 222.58 1408.74 239.22 1411.3 258.74L1382.86 260.291C1369.02 261.045 1357.64 250.656 1350.82 238.597C1347.56 232.834 1343.4 227.869 1338.33 223.7C1327.45 214.74 1313.86 210.26 1297.54 210.26C1276.1 210.26 1259.3 218.1 1247.14 233.78C1234.98 249.46 1228.9 271.38 1228.9 299.54C1228.9 327.7 1234.98 349.62 1247.14 365.3C1259.3 380.98 1276.1 388.82 1297.54 388.82C1313.86 388.82 1327.45 384.18 1338.33 374.9C1343.84 370.201 1348.29 364.353 1351.66 357.357C1357.76 344.727 1369.25 334.206 1383.26 334.97L1411.3 336.5C1408.74 356.02 1402.33 372.98 1392.09 387.38C1382.17 401.78 1369.05 412.98 1352.73 420.98C1336.41 428.98 1318.02 432.98 1297.54 432.98Z" fill="white"/>
<path d="M1561.31 171.86H1583.01C1597.64 171.86 1609.61 183.519 1610 198.149L1610.75 226.58L1604.99 223.7C1611.07 205.14 1621.47 190.9 1636.19 180.98C1650.91 171.06 1668.03 166.1 1687.55 166.1C1711.55 166.1 1731.71 172.02 1748.03 183.86C1764.67 195.7 1776.99 211.86 1784.99 232.34C1792.99 252.5 1796.99 274.9 1796.99 299.54C1796.99 324.18 1792.99 346.74 1784.99 367.22C1776.99 387.38 1764.67 403.38 1748.03 415.22C1731.71 427.06 1711.55 432.98 1687.55 432.98C1674.75 432.98 1662.75 430.74 1651.55 426.26C1640.35 421.78 1630.75 415.38 1622.75 407.06C1615.07 398.74 1609.63 389.14 1606.43 378.26L1612.19 372.5V472.22C1612.19 487.131 1600.1 499.22 1585.19 499.22H1561.31V171.86ZM1678.43 388.82C1698.91 388.82 1714.91 380.98 1726.43 365.3C1738.27 349.62 1744.19 327.7 1744.19 299.54C1744.19 271.38 1738.27 249.46 1726.43 233.78C1714.91 218.1 1698.91 210.26 1678.43 210.26C1664.99 210.26 1653.15 213.62 1642.91 220.34C1632.99 227.06 1625.31 237.14 1619.87 250.58C1614.75 263.7 1612.19 280.02 1612.19 299.54C1612.19 319.06 1614.75 335.54 1619.87 348.98C1625.31 362.1 1632.99 372.02 1642.91 378.74C1652.83 385.46 1664.67 388.82 1678.43 388.82Z" fill="white"/>
<path d="M1948.42 432.98C1924.1 432.98 1902.82 427.54 1884.58 416.66C1866.34 405.78 1852.1 390.26 1841.86 370.1C1831.94 349.94 1826.98 326.42 1826.98 299.54C1826.98 272.66 1831.94 249.14 1841.86 228.98C1852.1 208.82 1866.34 193.3 1884.58 182.42C1902.82 171.54 1924.1 166.1 1948.42 166.1C1972.42 166.1 1993.54 171.54 2011.78 182.42C2030.02 193.3 2044.1 208.82 2054.02 228.98C2064.26 249.14 2069.38 272.66 2069.38 299.54C2069.38 326.42 2064.26 349.94 2054.02 370.1C2044.1 390.26 2030.02 405.78 2011.78 416.66C1993.54 427.54 1972.42 432.98 1948.42 432.98ZM1948.42 388.82C1969.86 388.82 1986.5 380.98 1998.34 365.3C2010.5 349.3 2016.58 327.38 2016.58 299.54C2016.58 271.7 2010.5 249.94 1998.34 234.26C1986.5 218.26 1969.86 210.26 1948.42 210.26C1926.98 210.26 1910.18 218.1 1898.02 233.78C1885.86 249.46 1879.78 271.38 1879.78 299.54C1879.78 327.7 1885.86 349.62 1898.02 365.3C1910.18 380.98 1926.98 388.82 1948.42 388.82Z" fill="white"/>
<path d="M2113.98 171.86H2134.3C2148.91 171.86 2160.87 183.486 2161.29 198.094L2162.46 239.54L2158.14 238.1C2161.66 215.38 2168.7 198.74 2179.26 188.18C2189.82 177.3 2204.38 171.86 2222.94 171.86H2247.42V192.98C2247.42 206.499 2236.46 217.46 2222.94 217.46V217.46C2209.82 217.46 2198.94 219.7 2190.3 224.18C2181.98 228.34 2175.58 234.74 2171.1 243.38C2166.94 252.02 2164.86 263.06 2164.86 276.5V400.22C2164.86 415.131 2152.77 427.22 2137.86 427.22H2113.98V171.86Z" fill="white"/>
<path d="M2386.05 427.22C2361.73 427.22 2343.81 421.62 2332.29 410.42C2320.77 399.22 2315.01 381.78 2315.01 358.1V111.86H2338.89C2353.8 111.86 2365.89 123.948 2365.89 138.86V354.26C2365.89 365.78 2368.29 373.94 2373.09 378.74C2378.21 383.22 2386.21 385.46 2397.09 385.46H2406.57C2421.48 385.46 2433.57 397.548 2433.57 412.46V427.22H2386.05ZM2276.13 198.86C2276.13 183.948 2288.22 171.86 2303.13 171.86H2433.57V186.62C2433.57 201.531 2421.48 213.62 2406.57 213.62H2276.13V198.86Z" fill="white"/>
<path d="M2502.26 155.54C2502.26 133.78 2508.34 116.82 2520.5 104.66C2532.66 92.4995 2551.06 86.4195 2575.7 86.4195H2620.82V101.18C2620.82 116.091 2608.74 128.18 2593.82 128.18H2582.42C2572.5 128.18 2565.14 130.74 2560.34 135.86C2555.54 140.98 2553.14 148.5 2553.14 158.42V400.22C2553.14 415.131 2541.06 427.22 2526.14 427.22H2502.26V155.54ZM2466.74 202.22C2466.74 187.308 2478.83 175.22 2493.74 175.22H2616.98V189.5C2616.98 204.411 2604.9 216.5 2589.98 216.5H2466.74V202.22Z" fill="white"/>
<path d="M2757.99 432.98C2733.67 432.98 2712.39 427.54 2694.15 416.66C2675.91 405.78 2661.67 390.26 2651.43 370.1C2641.51 349.94 2636.55 326.42 2636.55 299.54C2636.55 272.66 2641.51 249.14 2651.43 228.98C2661.67 208.82 2675.91 193.3 2694.15 182.42C2712.39 171.54 2733.67 166.1 2757.99 166.1C2781.99 166.1 2803.11 171.54 2821.35 182.42C2839.59 193.3 2853.67 208.82 2863.59 228.98C2873.83 249.14 2878.95 272.66 2878.95 299.54C2878.95 326.42 2873.83 349.94 2863.59 370.1C2853.67 390.26 2839.59 405.78 2821.35 416.66C2803.11 427.54 2781.99 432.98 2757.99 432.98ZM2757.99 388.82C2779.43 388.82 2796.07 380.98 2807.91 365.3C2820.07 349.3 2826.15 327.38 2826.15 299.54C2826.15 271.7 2820.07 249.94 2807.91 234.26C2796.07 218.26 2779.43 210.26 2757.99 210.26C2736.55 210.26 2719.75 218.1 2707.59 233.78C2695.43 249.46 2689.35 271.38 2689.35 299.54C2689.35 327.7 2695.43 349.62 2707.59 365.3C2719.75 380.98 2736.55 388.82 2757.99 388.82Z" fill="white"/>
<path d="M2980.18 427.22C2962.58 427.22 2948.82 422.9 2938.9 414.26C2928.98 405.3 2924.02 391.54 2924.02 372.98L2924.5 86.4195H2948.38C2963.29 86.4195 2975.38 98.5078 2975.38 113.42V368.18C2975.38 373.94 2976.82 378.26 2979.7 381.14C2982.9 384.02 2987.22 385.46 2992.66 385.46V385.46C3004.06 385.46 3013.3 394.7 3013.3 406.1V427.22H2980.18Z" fill="white"/>
<path d="M3057.86 198.86C3057.86 183.948 3069.94 171.86 3084.86 171.86H3108.74V400.22C3108.74 415.131 3096.65 427.22 3081.74 427.22H3057.86V198.86ZM3056.9 111.02C3056.9 96.1078 3068.98 84.0195 3083.9 84.0195H3110.18V107.9C3110.18 122.811 3098.09 134.9 3083.18 134.9H3056.9V111.02Z" fill="white"/>
<path d="M3277.16 432.98C3252.84 432.98 3231.56 427.54 3213.32 416.66C3195.08 405.78 3180.84 390.26 3170.6 370.1C3160.68 349.94 3155.72 326.42 3155.72 299.54C3155.72 272.66 3160.68 249.14 3170.6 228.98C3180.84 208.82 3195.08 193.3 3213.32 182.42C3231.56 171.54 3252.84 166.1 3277.16 166.1C3301.16 166.1 3322.28 171.54 3340.52 182.42C3358.76 193.3 3372.84 208.82 3382.76 228.98C3393 249.14 3398.12 272.66 3398.12 299.54C3398.12 326.42 3393 349.94 3382.76 370.1C3372.84 390.26 3358.76 405.78 3340.52 416.66C3322.28 427.54 3301.16 432.98 3277.16 432.98ZM3277.16 388.82C3298.6 388.82 3315.24 380.98 3327.08 365.3C3339.24 349.3 3345.32 327.38 3345.32 299.54C3345.32 271.7 3339.24 249.94 3327.08 234.26C3315.24 218.26 3298.6 210.26 3277.16 210.26C3255.72 210.26 3238.92 218.1 3226.76 233.78C3214.6 249.46 3208.52 271.38 3208.52 299.54C3208.52 327.7 3214.6 349.62 3226.76 365.3C3238.92 380.98 3255.72 388.82 3277.16 388.82Z" fill="white"/>
</svg>
