<svg width="606" height="240" viewBox="0 0 606 240" fill="none" xmlns="http://www.w3.org/2000/svg">
<path d="M95.4713 168.17C83.6559 168.17 74.7483 165.031 68.7483 158.754C62.8406 152.385 59.8867 143.062 59.8867 130.785C59.8867 117.585 62.8867 108.123 68.8867 102.4C74.979 96.5849 83.8406 93.6772 95.4713 93.6772C103.317 93.6772 109.871 95.0157 115.133 97.6926C120.487 100.277 124.502 104.293 127.179 109.739C129.948 115.185 131.333 122.2 131.333 130.785C131.333 143.062 128.241 152.385 122.056 158.754C115.871 165.031 107.01 168.17 95.4713 168.17ZM95.4713 151.693C98.8867 151.693 101.702 150.908 103.917 149.339C106.225 147.677 107.933 145.323 109.041 142.277C110.241 139.139 110.841 135.308 110.841 130.785C110.841 125.616 110.241 121.554 109.041 118.6C107.933 115.554 106.225 113.385 103.917 112.093C101.61 110.708 98.7944 110.016 95.4713 110.016C91.9636 110.016 89.1021 110.708 86.8867 112.093C84.6713 113.477 83.0098 115.693 81.9021 118.739C80.8867 121.693 80.379 125.708 80.379 130.785C80.379 137.8 81.579 143.062 83.979 146.57C86.4713 149.985 90.3021 151.693 95.4713 151.693Z" fill="white"/>
<path d="M145.573 101.985C147.327 101.062 149.634 100.139 152.496 99.2157C155.357 98.2003 158.496 97.3234 161.911 96.5849C165.327 95.8465 168.742 95.2465 172.157 94.7849C175.665 94.3234 178.896 94.0926 181.85 94.0926C188.127 94.0926 193.48 94.9234 197.911 96.5849C202.342 98.1542 205.711 100.739 208.019 104.339C210.419 107.939 211.619 112.831 211.619 119.016V166.093H190.988V123.17C190.988 121.416 190.711 119.8 190.157 118.323C189.696 116.846 188.957 115.6 187.942 114.585C186.927 113.477 185.542 112.646 183.788 112.093C182.034 111.446 179.911 111.123 177.419 111.123C175.296 111.123 173.173 111.4 171.05 111.954C168.067 112.602 162.716 114.555 160.032 115.923H166.204V166.093H145.573V101.985Z" fill="white"/>
<path d="M262.763 167.893C257.779 167.893 253.071 167.154 248.64 165.677C244.209 164.2 240.286 161.985 236.871 159.031C233.455 156.077 230.779 152.339 228.84 147.816C226.902 143.293 225.932 138.031 225.932 132.031C225.932 125.662 226.855 120.123 228.702 115.416C230.548 110.616 233.086 106.646 236.317 103.508C239.64 100.37 243.517 98.0157 247.948 96.4465C252.379 94.8772 257.271 94.0926 262.625 94.0926C266.409 94.0926 270.286 94.508 274.255 95.3388C278.317 96.0772 280.448 96.6542 283.494 98.0388L284.917 116.246C281.686 114.77 278.502 113.57 275.363 112.646C272.317 111.631 269.179 111.123 265.948 111.123C260.132 111.123 255.425 112.6 251.825 115.554C248.317 118.416 246.563 123.123 246.563 129.677C246.563 136.6 248.132 141.816 251.271 145.323C254.409 148.831 259.625 150.585 266.917 150.585C270.332 150.585 273.609 149.985 276.748 148.785C279.979 147.585 282.748 146.339 285.055 145.046L283.494 163.231C280.263 164.893 278.455 165.585 274.948 166.508C271.44 167.431 267.379 167.893 262.763 167.893Z" fill="white"/>
<path d="M331.157 168.17C324.141 168.17 317.91 166.739 312.464 163.877C307.11 160.923 302.91 156.77 299.864 151.416C296.91 145.97 295.434 139.508 295.434 132.031C295.434 119.846 298.434 110.431 304.434 103.785C310.526 97.0465 319.203 93.6772 330.464 93.6772C338.218 93.6772 344.449 95.3388 349.157 98.6619C353.957 101.985 357.464 106.831 359.68 113.2C361.895 119.57 362.957 127.323 362.864 136.462H309.557L307.341 123.308H316.466L315.5 126.5L316.068 129.5L319.263 123.308H345.834L342.787 129.816C342.695 122.339 341.634 117.077 339.603 114.031C337.572 110.985 334.249 109.462 329.634 109.462C327.049 109.462 324.695 110.108 322.572 111.4C320.541 112.693 318.926 114.862 317.726 117.908C316.618 120.862 316.064 124.97 316.064 130.231C316.064 136.877 317.634 142 320.772 145.6C324.003 149.2 329.126 151 336.141 151C338.726 151 341.264 150.723 343.757 150.17C346.341 149.523 348.741 148.785 350.957 147.954C353.172 147.123 355.064 146.385 356.634 145.739L355.609 163.231C352.286 164.616 349.572 165.954 345.418 166.785C341.357 167.708 336.603 168.17 331.157 168.17Z" fill="white"/>
<path d="M410.87 133.968L410.882 133.969V64C417.964 64 423.708 69.6896 423.708 76.7078L423.696 134.676C423.696 147.312 426.546 156.7 432.248 162.84C437.95 168.863 446.321 171.874 457.367 171.874C468.413 171.874 476.851 168.863 482.667 162.84C488.49 156.7 491.401 147.312 491.401 134.676V76.3547C491.401 69.5313 496.982 64 503.87 64V133.968C503.87 144.714 502.03 153.807 498.35 161.246C494.664 168.686 489.38 174.354 482.492 178.251C446.224 198.143 410.87 171.28 410.87 133.968Z" fill="#B4D6FB"/>
<path d="M533.87 76.6919V182C541.051 182 546.87 176.318 546.87 169.308V64C539.689 64 533.87 69.6824 533.87 76.6919Z" fill="#B4D6FB"/>
</svg>
