<svg xmlns="http://www.w3.org/2000/svg" version="1.1" viewBox="0.22480538487434387 1.0665217638015747 622.6951904296875 442.9334716796875" width="624.00" height="444.00">
<g stroke-width="2.00" fill="none" stroke-linecap="butt">
<path stroke="#23464a" stroke-opacity="0.996" d="&#10;  M 312.54 1.07&#10;  Q 313.33 1.19 313.32 1.45"/>
<path stroke="#35774c" stroke-opacity="0.996" d="&#10;  M 280.80 32.42&#10;  Q 265.67 15.61 247.91 1.97"/>
<path stroke="#57974a" stroke-opacity="0.996" d="&#10;  M 253.45 59.55&#10;  Q 235.01 37.41 211.19 20.76"/>
<path stroke="#81af4c" stroke-opacity="0.996" d="&#10;  M 250.71 111.29&#10;  C 244.63 108.75 240.28 102.91 236.41 97.85&#10;  C 224.33 82.07 212.66 67.96 197.07 53.57"/>
<path stroke="#588653" stroke-opacity="0.992" d="&#10;  M 250.44 165.46&#10;  Q 245.84 153.18 239.88 144.36&#10;  Q 231.86 132.50 217.50 113.86&#10;  C 209.43 103.39 202.39 92.64 199.08 79.36&#10;  Q 198.45 76.84 197.76 71.06&#10;  Q 197.26 66.92 196.52 62.73"/>
<path stroke="#22677c" stroke-opacity="0.992" d="&#10;  M 237.79 206.08&#10;  C 225.86 187.42 212.11 167.17 196.68 150.48"/>
<path stroke="#629f4b" stroke-opacity="0.996" d="&#10;  M 371.96 2.13&#10;  L 370.99 2.18"/>
<path stroke="#81af4c" stroke-opacity="0.996" d="&#10;  M 379.80 2.80&#10;  Q 378.40 3.46 376.88 3.40&#10;  A 0.24 0.23 -16.9 0 0 376.68 3.77&#10;  Q 386.77 18.40 395.33 28.71&#10;  C 410.19 46.60 421.39 59.76 432.81 79.23"/>
<path stroke="#427b51" stroke-opacity="0.996" d="&#10;  M 432.81 79.23&#10;  Q 419.10 77.33 405.50 79.29"/>
<path stroke="#629f4b" stroke-opacity="0.996" d="&#10;  M 405.50 79.29&#10;  Q 392.88 59.00 375.58 38.64&#10;  Q 363.86 24.86 351.60 14.46"/>
<path stroke="#4a9e81" stroke-opacity="0.996" d="&#10;  M 351.60 14.46&#10;  L 364.36 2.84"/>
<path stroke="#628c66" stroke-opacity="0.992" d="&#10;  M 492.97 125.64&#10;  L 489.28 116.71"/>
<path stroke="#588653" stroke-opacity="0.992" d="&#10;  M 489.28 116.71&#10;  Q 484.49 106.79 479.14 101.10&#10;  C 467.09 88.28 450.69 81.56 432.81 79.23"/>
<path stroke="#23586b" stroke-opacity="0.992" d="&#10;  M 489.28 116.71&#10;  Q 483.06 118.15 481.17 119.72&#10;  Q 475.38 124.50 477.50 131.97&#10;  C 480.34 141.98 486.61 150.34 493.95 157.45"/>
<path stroke="#588653" stroke-opacity="0.992" d="&#10;  M 493.83 229.75&#10;  C 492.94 226.53 492.93 222.72 492.41 220.10&#10;  C 489.58 205.79 481.81 192.99 472.62 181.88&#10;  Q 456.25 162.09 439.22 142.45"/>
<path stroke="#397652" stroke-opacity="0.992" d="&#10;  M 405.50 79.29&#10;  L 393.42 81.07"/>
<path stroke="#4b8c49" stroke-opacity="0.992" d="&#10;  M 367.20 66.71&#10;  Q 353.72 48.83 341.65 29.37"/>
<path stroke="#419981" stroke-opacity="0.992" d="&#10;  M 351.60 14.46&#10;  Q 345.69 21.40 341.65 29.37"/>
<path stroke="#328b7f" stroke-opacity="0.992" d="&#10;  M 341.65 29.37&#10;  L 336.31 40.57"/>
<path stroke="#298aab" stroke-opacity="0.992" d="&#10;  M 336.31 40.57&#10;  Q 331.53 33.58 328.28 25.76"/>
<path stroke="#264261" stroke-opacity="0.992" d="&#10;  M 493.91 144.56&#10;  L 493.96 147.21"/>
<path stroke="#78aa4d" stroke-opacity="0.992" d="&#10;  M 492.44 244.45&#10;  Q 484.67 238.36 479.45 232.13&#10;  C 472.24 223.55 464.71 211.22 457.17 203.11&#10;  Q 453.24 198.90 439.09 185.10"/>
<path stroke="#356358" stroke-opacity="0.996" d="&#10;  M 329.67 102.50&#10;  Q 329.17 102.28 328.94 101.70"/>
<path stroke="#356d62" stroke-opacity="0.992" d="&#10;  M 328.94 101.70&#10;  L 328.31 88.74"/>
<path stroke="#337d73" stroke-opacity="0.992" d="&#10;  M 336.31 40.57&#10;  Q 326.97 63.69 328.31 88.74"/>
<path stroke="#2c6d8f" stroke-opacity="0.992" d="&#10;  M 328.31 88.74&#10;  C 318.12 76.35 309.55 63.62 304.01 48.43"/>
<path stroke="#4b8c49" stroke-opacity="0.992" d="&#10;  M 469.77 281.70&#10;  Q 451.03 257.44 436.70 230.14"/>
<path stroke="#263857" stroke-opacity="0.996" d="&#10;  M 329.00 149.71&#10;  Q 309.82 128.21 296.62 111.90&#10;  Q 287.39 100.49 278.26 85.35"/>
<path stroke="#2e5373" stroke-opacity="0.996" d="&#10;  M 328.94 101.70&#10;  L 328.57 113.09&#10;  A 0.20 0.20 0.0 0 1 328.22 113.22&#10;  Q 313.33 96.30 303.76 78.74&#10;  Q 298.01 68.18 296.70 55.15"/>
<path stroke="#2e6b4d" stroke-opacity="0.992" d="&#10;  M 454.91 290.82&#10;  Q 443.99 276.27 433.12 262.01&#10;  Q 425.47 251.97 421.43 238.48"/>
<path stroke="#263857" stroke-opacity="0.996" d="&#10;  M 325.83 222.58&#10;  C 324.77 212.77 324.04 202.12 319.74 193.19&#10;  A 2.72 2.54 11.0 0 0 319.16 192.39&#10;  C 304.51 178.29 294.61 167.32 278.77 159.96"/>
<path stroke="#1f404c" stroke-opacity="0.992" d="&#10;  M 406.88 296.51&#10;  Q 386.90 292.88 371.75 281.47&#10;  C 361.39 273.67 351.99 261.65 350.40 248.71&#10;  C 350.01 245.62 349.65 243.69 350.38 241.27&#10;  A 2.61 2.60 -82.9 0 1 352.76 239.41&#10;  L 365.72 238.81"/>
<path stroke="#2e5373" stroke-opacity="0.996" d="&#10;  M 323.77 229.39&#10;  Q 318.61 219.02 313.33 213.60&#10;  Q 300.04 199.94 287.06 185.99&#10;  Q 285.20 183.99 278.77 177.99"/>
<path stroke="#263857" stroke-opacity="0.996" d="&#10;  M 278.88 169.76&#10;  L 278.87 165.57"/>
<path stroke="#2c6d8f" stroke-opacity="0.992" d="&#10;  M 308.83 258.04&#10;  Q 303.69 248.99 298.40 242.67&#10;  Q 287.26 229.32 272.21 215.30"/>
<path stroke="#298aab" stroke-opacity="0.992" d="&#10;  M 280.76 282.53&#10;  L 258.51 248.43"/>
<path stroke="#264261" stroke-opacity="0.992" d="&#10;  M 275.87 198.61&#10;  Q 274.86 206.96 272.21 215.30"/>
<path stroke="#245272" stroke-opacity="0.992" d="&#10;  M 272.21 215.30&#10;  Q 267.20 232.55 258.51 248.43"/>
<path stroke="#23607e" stroke-opacity="0.992" d="&#10;  M 258.51 248.43&#10;  C 251.34 262.07 240.40 275.41 227.43 283.83"/>
<path stroke="#263857" stroke-opacity="0.996" d="&#10;  M 227.43 283.83&#10;  Q 223.53 262.36 214.95 242.54&#10;  A 0.64 0.63 73.2 0 0 214.27 242.17&#10;  L 206.05 243.52"/>
<path stroke="#264261" stroke-opacity="0.992" d="&#10;  M 206.05 243.52&#10;  Q 192.54 245.53 179.05 243.49"/>
<path stroke="#245272" stroke-opacity="0.992" d="&#10;  M 179.05 243.49&#10;  Q 167.72 241.78 156.97 237.78"/>
<path stroke="#23607e" stroke-opacity="0.992" d="&#10;  M 156.97 237.78&#10;  L 149.88 234.58"/>
<path stroke="#263857" stroke-opacity="0.996" d="&#10;  M 149.88 234.58&#10;  C 157.71 211.07 157.81 188.67 157.34 163.26&#10;  A 0.59 0.59 0.0 0 0 156.83 162.69&#10;  L 151.44 161.85"/>
<path stroke="#2b7090" stroke-opacity="0.996" d="&#10;  M 149.88 234.58&#10;  C 139.69 229.82 127.72 220.62 124.18 209.61&#10;  Q 122.55 204.54 121.27 201.93"/>
<path stroke="#2c6d8f" stroke-opacity="0.992" d="&#10;  M 179.05 243.49&#10;  L 175.75 285.84"/>
<path stroke="#2b7b9b" stroke-opacity="0.992" d="&#10;  M 216.67 289.15&#10;  Q 203.37 293.85 189.52 290.46&#10;  Q 188.87 290.30 188.38 290.76&#10;  Q 188.26 290.88 188.46 291.17"/>
<path stroke="#298aab" stroke-opacity="0.992" d="&#10;  M 156.97 237.78&#10;  L 154.18 271.33"/>
<path stroke="#2b7090" stroke-opacity="0.996" d="&#10;  M 227.43 283.83&#10;  Q 222.54 287.19 216.67 289.15"/>
<path stroke="#2e5373" stroke-opacity="0.996" d="&#10;  M 216.67 289.15&#10;  Q 212.54 265.94 206.05 243.52"/>
<path stroke="#2c6d8f" stroke-opacity="0.992" d="&#10;  M 383.98 162.47&#10;  L 374.10 163.60&#10;  A 0.53 0.52 86.0 0 0 373.63 164.15&#10;  L 375.31 211.92"/>
</g>
<path fill="#276450" fill-opacity="0.996" d="&#10;  M 312.54 1.07&#10;  Q 313.33 1.19 313.32 1.45&#10;  L 312.69 2.85&#10;  A 1.78 1.76 -9.7 0 1 312.31 3.38&#10;  L 280.80 32.42&#10;  Q 265.67 15.61 247.91 1.97&#10;  Q 253.45 1.31 255.00 1.30&#10;  Q 283.78 1.24 312.54 1.07&#10;  Z"/>
<path fill="#1e2744" fill-opacity="0.992" d="&#10;  M 313.32 1.45&#10;  Q 313.33 1.19 312.54 1.07&#10;  Q 313.86 1.03 313.32 1.45&#10;  Z"/>
<path fill="#428a48" fill-opacity="0.996" d="&#10;  M 247.91 1.97&#10;  Q 265.67 15.61 280.80 32.42&#10;  Q 276.59 36.12 264.77 47.02&#10;  Q 258.12 53.16 253.45 59.55&#10;  Q 235.01 37.41 211.19 20.76&#10;  Q 213.33 18.26 215.72 16.24&#10;  Q 224.99 8.39 235.39 4.65&#10;  Q 240.85 2.69 247.91 1.97&#10;  Z"/>
<path fill="#599a4b" fill-opacity="0.992" d="&#10;  M 371.96 2.13&#10;  L 370.99 2.18&#10;  Q 371.40 2.06 371.96 2.13&#10;  Z"/>
<path fill="#6ba44b" fill-opacity="0.996" d="&#10;  M 379.80 2.80&#10;  Q 378.40 3.46 376.88 3.40&#10;  A 0.24 0.23 -16.9 0 0 376.68 3.77&#10;  Q 386.77 18.40 395.33 28.71&#10;  C 410.19 46.60 421.39 59.76 432.81 79.23&#10;  Q 419.10 77.33 405.50 79.29&#10;  Q 392.88 59.00 375.58 38.64&#10;  Q 363.86 24.86 351.60 14.46&#10;  L 364.36 2.84&#10;  Q 366.54 1.97 370.99 2.18&#10;  L 371.96 2.13&#10;  L 379.80 2.80&#10;  Z"/>
<path fill="#2898b7" fill-opacity="0.992" d="&#10;  M 364.36 2.84&#10;  L 351.60 14.46&#10;  Q 345.69 21.40 341.65 29.37&#10;  L 336.31 40.57&#10;  Q 331.53 33.58 328.28 25.76&#10;  C 336.92 17.54 346.24 9.39 356.97 4.48&#10;  Q 359.58 3.28 364.36 2.84&#10;  Z"/>
<path fill="#97ba4e" fill-opacity="0.992" d="&#10;  M 492.97 125.64&#10;  L 489.28 116.71&#10;  Q 484.49 106.79 479.14 101.10&#10;  C 467.09 88.28 450.69 81.56 432.81 79.23&#10;  C 421.39 59.76 410.19 46.60 395.33 28.71&#10;  Q 386.77 18.40 376.68 3.77&#10;  A 0.24 0.23 -16.9 0 1 376.88 3.40&#10;  Q 378.40 3.46 379.80 2.80&#10;  Q 390.64 5.00 398.56 12.19&#10;  C 411.67 24.09 427.96 40.85 440.07 52.19&#10;  Q 453.95 65.18 474.08 85.17&#10;  C 485.24 96.26 493.12 109.38 492.97 125.64&#10;  Z"/>
<path fill="#599a4b" fill-opacity="0.992" d="&#10;  M 405.50 79.29&#10;  L 393.42 81.07&#10;  Q 386.31 73.48 378.70 67.06&#10;  Q 373.42 62.62 367.20 66.71&#10;  Q 353.72 48.83 341.65 29.37&#10;  Q 345.69 21.40 351.60 14.46&#10;  Q 363.86 24.86 375.58 38.64&#10;  Q 392.88 59.00 405.50 79.29&#10;  Z"/>
<path fill="#6ba44b" fill-opacity="0.996" d="&#10;  M 253.45 59.55&#10;  Q 250.71 65.26 250.79 72.25&#10;  Q 250.96 86.89 250.71 111.29&#10;  C 244.63 108.75 240.28 102.91 236.41 97.85&#10;  C 224.33 82.07 212.66 67.96 197.07 53.57&#10;  Q 199.58 34.92 211.19 20.76&#10;  Q 235.01 37.41 253.45 59.55&#10;  Z"/>
<path fill="#2a7c9f" fill-opacity="0.992" d="&#10;  M 328.28 25.76&#10;  Q 331.53 33.58 336.31 40.57&#10;  Q 326.97 63.69 328.31 88.74&#10;  C 318.12 76.35 309.55 63.62 304.01 48.43&#10;  L 328.28 25.76&#10;  Z"/>
<path fill="#3c7d46" fill-opacity="0.992" d="&#10;  M 367.20 66.71&#10;  Q 349.62 82.55 332.52 98.89&#10;  C 331.33 100.03 330.58 101.17 329.67 102.50&#10;  Q 329.17 102.28 328.94 101.70&#10;  L 328.31 88.74&#10;  Q 326.97 63.69 336.31 40.57&#10;  L 341.65 29.37&#10;  Q 353.72 48.83 367.20 66.71&#10;  Z"/>
<path fill="#2d5d7e" fill-opacity="0.992" d="&#10;  M 304.01 48.43&#10;  C 309.55 63.62 318.12 76.35 328.31 88.74&#10;  L 328.94 101.70&#10;  L 328.57 113.09&#10;  A 0.20 0.20 0.0 0 1 328.22 113.22&#10;  Q 313.33 96.30 303.76 78.74&#10;  Q 298.01 68.18 296.70 55.15&#10;  L 304.01 48.43&#10;  Z"/>
<path fill="#97ba4e" fill-opacity="0.992" d="&#10;  M 250.71 111.29&#10;  Q 250.70 135.54 250.87 159.80&#10;  Q 250.88 161.56 250.44 165.46&#10;  Q 245.84 153.18 239.88 144.36&#10;  Q 231.86 132.50 217.50 113.86&#10;  C 209.43 103.39 202.39 92.64 199.08 79.36&#10;  Q 198.45 76.84 197.76 71.06&#10;  Q 197.26 66.92 196.52 62.73&#10;  L 197.07 53.57&#10;  C 212.66 67.96 224.33 82.07 236.41 97.85&#10;  C 240.28 102.91 244.63 108.75 250.71 111.29&#10;  Z"/>
<path fill="#2e4969" fill-opacity="0.996" d="&#10;  M 296.70 55.15&#10;  Q 298.01 68.18 303.76 78.74&#10;  Q 313.33 96.30 328.22 113.22&#10;  A 0.20 0.20 0.0 0 0 328.57 113.09&#10;  L 328.94 101.70&#10;  Q 329.17 102.28 329.67 102.50&#10;  Q 329.07 103.64 329.07 105.00&#10;  Q 328.95 127.35 329.00 149.71&#10;  Q 309.82 128.21 296.62 111.90&#10;  Q 287.39 100.49 278.26 85.35&#10;  Q 278.11 79.45 279.41 75.12&#10;  Q 280.81 70.43 285.13 66.13&#10;  Q 290.70 60.59 296.70 55.15&#10;  Z"/>
<path fill="#195258" fill-opacity="0.992" d="&#10;  M 250.44 165.46&#10;  Q 251.52 175.41 250.69 183.73&#10;  Q 250.43 186.40 248.94 190.97&#10;  Q 245.87 200.35 237.79 206.08&#10;  C 225.86 187.42 212.11 167.17 196.68 150.48&#10;  L 196.52 62.73&#10;  Q 197.26 66.92 197.76 71.06&#10;  Q 198.45 76.84 199.08 79.36&#10;  C 202.39 92.64 209.43 103.39 217.50 113.86&#10;  Q 231.86 132.50 239.88 144.36&#10;  Q 245.84 153.18 250.44 165.46&#10;  Z"/>
<path fill="#195258" fill-opacity="0.992" d="&#10;  M 432.81 79.23&#10;  C 450.69 81.56 467.09 88.28 479.14 101.10&#10;  Q 484.49 106.79 489.28 116.71&#10;  Q 483.06 118.15 481.17 119.72&#10;  Q 475.38 124.50 477.50 131.97&#10;  C 480.34 141.98 486.61 150.34 493.95 157.45&#10;  L 493.83 229.75&#10;  C 492.94 226.53 492.93 222.72 492.41 220.10&#10;  C 489.58 205.79 481.81 192.99 472.62 181.88&#10;  Q 456.25 162.09 439.22 142.45&#10;  L 439.08 132.41&#10;  A 3.81 3.38 41.6 0 0 438.98 131.57&#10;  Q 437.82 126.53 436.02 123.72&#10;  Q 435.12 122.29 430.26 117.49&#10;  Q 411.71 99.13 393.42 81.07&#10;  L 405.50 79.29&#10;  Q 419.10 77.33 432.81 79.23&#10;  Z"/>
<path fill="#1e2744" fill-opacity="0.992" d="&#10;  M 329.00 149.71&#10;  Q 329.11 173.39 328.88 197.07&#10;  Q 328.82 203.92 327.94 209.87&#10;  Q 327.01 216.21 325.83 222.58&#10;  C 324.77 212.77 324.04 202.12 319.74 193.19&#10;  A 2.72 2.54 11.0 0 0 319.16 192.39&#10;  C 304.51 178.29 294.61 167.32 278.77 159.96&#10;  L 278.26 85.35&#10;  Q 287.39 100.49 296.62 111.90&#10;  Q 309.82 128.21 329.00 149.71&#10;  Z"/>
<path fill="#2d5d7e" fill-opacity="0.992" d="&#10;  M 489.28 116.71&#10;  L 492.97 125.64&#10;  Q 494.22 134.63 493.91 144.56&#10;  L 493.96 147.21&#10;  L 493.95 157.45&#10;  C 486.61 150.34 480.34 141.98 477.50 131.97&#10;  Q 475.38 124.50 481.17 119.72&#10;  Q 483.06 118.15 489.28 116.71&#10;  Z"/>
<path fill="#97ba4e" fill-opacity="0.992" d="&#10;  M 493.83 229.75&#10;  Q 493.89 237.14 492.44 244.45&#10;  Q 484.67 238.36 479.45 232.13&#10;  C 472.24 223.55 464.71 211.22 457.17 203.11&#10;  Q 453.24 198.90 439.09 185.10&#10;  L 439.22 142.45&#10;  Q 456.25 162.09 472.62 181.88&#10;  C 481.81 192.99 489.58 205.79 492.41 220.10&#10;  C 492.93 222.72 492.94 226.53 493.83 229.75&#10;  Z"/>
<path fill="#1e2744" fill-opacity="0.992" d="&#10;  M 493.91 144.56&#10;  L 493.96 147.21&#10;  L 493.91 144.56&#10;  Z"/>
<path fill="#2a7c9f" fill-opacity="0.992" d="&#10;  M 237.79 206.08&#10;  Q 232.76 209.19 229.01 209.79&#10;  Q 225.52 210.35 217.12 209.76&#10;  A 3.60 3.40 -30.7 0 1 216.14 209.54&#10;  Q 201.76 204.02 197.38 189.40&#10;  A 5.96 5.45 36.8 0 1 197.18 188.35&#10;  C 195.99 175.78 196.56 163.13 196.68 150.48&#10;  C 212.11 167.17 225.86 187.42 237.79 206.08&#10;  Z"/>
<path fill="#2e4969" fill-opacity="0.996" d="&#10;  M 325.83 222.58&#10;  L 323.77 229.39&#10;  Q 318.61 219.02 313.33 213.60&#10;  Q 300.04 199.94 287.06 185.99&#10;  Q 285.20 183.99 278.77 177.99&#10;  L 278.88 169.76&#10;  L 278.87 165.57&#10;  L 278.77 159.96&#10;  C 294.61 167.32 304.51 178.29 319.16 192.39&#10;  A 2.72 2.54 11.0 0 1 319.74 193.19&#10;  C 324.04 202.12 324.77 212.77 325.83 222.58&#10;  Z"/>
<path fill="#1e2744" fill-opacity="0.992" d="&#10;  M 275.87 198.61&#10;  Q 274.86 206.96 272.21 215.30&#10;  Q 267.20 232.55 258.51 248.43&#10;  C 251.34 262.07 240.40 275.41 227.43 283.83&#10;  Q 223.53 262.36 214.95 242.54&#10;  A 0.64 0.63 73.2 0 0 214.27 242.17&#10;  L 206.05 243.52&#10;  Q 192.54 245.53 179.05 243.49&#10;  Q 167.72 241.78 156.97 237.78&#10;  L 149.88 234.58&#10;  C 157.71 211.07 157.81 188.67 157.34 163.26&#10;  A 0.59 0.59 0.0 0 0 156.83 162.69&#10;  L 151.44 161.85&#10;  L 166.34 161.55&#10;  A 2.12 2.12 0.0 0 1 168.48 163.93&#10;  Q 166.73 178.01 169.62 192.15&#10;  Q 173.43 210.73 187.63 223.15&#10;  Q 203.82 237.30 225.52 236.98&#10;  Q 227.58 236.95 233.09 236.17&#10;  Q 237.36 235.56 240.51 234.53&#10;  Q 266.78 225.95 275.87 198.61&#10;  Z"/>
<path fill="#2e4969" fill-opacity="0.996" d="&#10;  M 151.44 161.85&#10;  L 156.83 162.69&#10;  A 0.59 0.59 0.0 0 1 157.34 163.26&#10;  C 157.81 188.67 157.71 211.07 149.88 234.58&#10;  C 139.69 229.82 127.72 220.62 124.18 209.61&#10;  Q 122.55 204.54 121.27 201.93&#10;  Q 120.56 191.58 121.14 188.43&#10;  Q 122.70 179.90 127.13 172.92&#10;  C 129.19 169.66 131.60 167.22 135.17 165.38&#10;  Q 142.73 161.48 151.44 161.85&#10;  Z"/>
<path fill="#2d5d7e" fill-opacity="0.992" d="&#10;  M 383.98 162.47&#10;  L 374.10 163.60&#10;  A 0.53 0.52 86.0 0 0 373.63 164.15&#10;  L 375.31 211.92&#10;  L 358.13 211.92&#10;  A 0.86 0.85 0.0 0 1 357.27 211.07&#10;  L 357.27 164.18&#10;  A 1.35 1.35 0.0 0 1 358.60 162.83&#10;  L 383.98 162.47&#10;  Z"/>
<path fill="#2a7c9f" fill-opacity="0.992" d="&#10;  M 375.31 211.92&#10;  L 373.63 164.15&#10;  A 0.53 0.52 86.0 0 1 374.10 163.60&#10;  L 383.98 162.47&#10;  Q 396.21 162.58 408.50 162.52&#10;  Q 410.74 162.51 410.79 165.02&#10;  Q 411.19 187.95 410.71 210.29&#10;  A 1.80 1.79 0.7 0 1 408.91 212.04&#10;  L 375.31 211.92&#10;  Z"/>
<path fill="#1e2744" fill-opacity="0.992" d="&#10;  M 278.88 169.76&#10;  L 278.87 165.57&#10;  L 278.88 169.76&#10;  Z"/>
<path fill="#2d5d7e" fill-opacity="0.992" d="&#10;  M 323.77 229.39&#10;  Q 318.90 245.04 308.83 258.04&#10;  Q 303.69 248.99 298.40 242.67&#10;  Q 287.26 229.32 272.21 215.30&#10;  Q 274.86 206.96 275.87 198.61&#10;  Q 278.22 188.68 278.77 177.99&#10;  Q 285.20 183.99 287.06 185.99&#10;  Q 300.04 199.94 313.33 213.60&#10;  Q 318.61 219.02 323.77 229.39&#10;  Z"/>
<path fill="#599a4b" fill-opacity="0.992" d="&#10;  M 492.44 244.45&#10;  Q 488.01 267.45 469.77 281.70&#10;  Q 451.03 257.44 436.70 230.14&#10;  Q 438.99 226.18 439.00 223.75&#10;  Q 439.12 204.35 439.09 185.10&#10;  Q 453.24 198.90 457.17 203.11&#10;  C 464.71 211.22 472.24 223.55 479.45 232.13&#10;  Q 484.67 238.36 492.44 244.45&#10;  Z"/>
<path fill="#2898b7" fill-opacity="0.992" d="&#10;  M 149.88 234.58&#10;  L 156.97 237.78&#10;  L 154.18 271.33&#10;  Q 145.13 263.52 139.38 255.12&#10;  Q 128.07 238.59 123.29 219.08&#10;  Q 123.02 217.99 122.71 216.91&#10;  Q 120.66 209.83 121.27 201.93&#10;  Q 122.55 204.54 124.18 209.61&#10;  C 127.72 220.62 139.69 229.82 149.88 234.58&#10;  Z"/>
<path fill="#2a7c9f" fill-opacity="0.992" d="&#10;  M 308.83 258.04&#10;  Q 297.22 273.00 280.76 282.53&#10;  L 258.51 248.43&#10;  Q 267.20 232.55 272.21 215.30&#10;  Q 287.26 229.32 298.40 242.67&#10;  Q 303.69 248.99 308.83 258.04&#10;  Z"/>
<path fill="#3c7d46" fill-opacity="0.992" d="&#10;  M 436.70 230.14&#10;  Q 451.03 257.44 469.77 281.70&#10;  Q 462.79 287.43 454.91 290.82&#10;  Q 443.99 276.27 433.12 262.01&#10;  Q 425.47 251.97 421.43 238.48&#10;  Q 431.13 238.16 436.70 230.14&#10;  Z"/>
<path fill="#2a7c9f" fill-opacity="0.992" d="&#10;  M 179.05 243.49&#10;  L 175.75 285.84&#10;  Q 163.99 279.97 154.18 271.33&#10;  L 156.97 237.78&#10;  Q 167.72 241.78 179.05 243.49&#10;  Z"/>
<path fill="#1f5954" fill-opacity="0.992" d="&#10;  M 421.43 238.48&#10;  Q 425.47 251.97 433.12 262.01&#10;  Q 443.99 276.27 454.91 290.82&#10;  L 439.20 295.63&#10;  A 2.62 2.51 -54.3 0 1 438.61 295.74&#10;  Q 422.34 296.91 406.88 296.51&#10;  Q 386.90 292.88 371.75 281.47&#10;  C 361.39 273.67 351.99 261.65 350.40 248.71&#10;  C 350.01 245.62 349.65 243.69 350.38 241.27&#10;  A 2.61 2.60 -82.9 0 1 352.76 239.41&#10;  L 365.72 238.81&#10;  L 421.43 238.48&#10;  Z"/>
<path fill="#1e2744" fill-opacity="0.992" d="&#10;  M 365.72 238.81&#10;  L 352.76 239.41&#10;  A 2.61 2.60 -82.9 0 0 350.38 241.27&#10;  C 349.65 243.69 350.01 245.62 350.40 248.71&#10;  C 351.99 261.65 361.39 273.67 371.75 281.47&#10;  Q 386.90 292.88 406.88 296.51&#10;  L 311.69 296.27&#10;  A 0.65 0.65 0.0 0 1 311.26 295.13&#10;  Q 317.30 289.81 322.96 283.96&#10;  Q 339.92 266.41 348.48 243.90&#10;  C 349.29 241.78 349.02 239.05 352.35 238.85&#10;  Q 355.44 238.67 365.72 238.81&#10;  Z"/>
<path fill="#2e4969" fill-opacity="0.996" d="&#10;  M 227.43 283.83&#10;  Q 222.54 287.19 216.67 289.15&#10;  Q 212.54 265.94 206.05 243.52&#10;  L 214.27 242.17&#10;  A 0.64 0.63 73.2 0 1 214.95 242.54&#10;  Q 223.53 262.36 227.43 283.83&#10;  Z"/>
<path fill="#2d5d7e" fill-opacity="0.992" d="&#10;  M 206.05 243.52&#10;  Q 212.54 265.94 216.67 289.15&#10;  Q 203.37 293.85 189.52 290.46&#10;  Q 188.87 290.30 188.38 290.76&#10;  Q 188.26 290.88 188.46 291.17&#10;  L 175.75 285.84&#10;  L 179.05 243.49&#10;  Q 192.54 245.53 206.05 243.52&#10;  Z"/>
<path fill="#2898b7" fill-opacity="0.992" d="&#10;  M 280.76 282.53&#10;  Q 271.92 287.96 262.06 291.17&#10;  Q 258.47 292.35 254.82 293.64&#10;  A 5.02 4.37 -54.1 0 1 253.83 293.87&#10;  Q 250.15 294.32 246.94 295.49&#10;  A 6.78 6.78 0.0 0 1 244.92 295.88&#10;  Q 240.04 296.07 230.51 296.81&#10;  Q 221.61 297.50 204.77 295.71&#10;  A 9.97 9.90 -32.2 0 1 202.53 295.21&#10;  Q 199.93 294.30 196.34 293.79&#10;  A 3.41 3.32 57.1 0 1 195.77 293.66&#10;  L 188.46 291.17&#10;  Q 188.26 290.88 188.38 290.76&#10;  Q 188.87 290.30 189.52 290.46&#10;  Q 203.37 293.85 216.67 289.15&#10;  Q 222.54 287.19 227.43 283.83&#10;  C 240.40 275.41 251.34 262.07 258.51 248.43&#10;  L 280.76 282.53&#10;  Z"/>
<path fill="#1e2744" fill-opacity="0.992" d="&#10;  M 206.34 444.00&#10;  L 195.26 444.00&#10;  Q 177.98 440.22 170.96 425.02&#10;  C 163.92 409.76 168.18 390.73 182.13 381.07&#10;  C 191.48 374.59 204.50 373.27 215.08 378.38&#10;  C 220.21 380.86 226.08 385.26 228.43 390.50&#10;  A 0.72 0.71 58.7 0 1 228.23 391.34&#10;  C 226.49 392.77 225.66 393.69 223.81 393.99&#10;  C 223.05 394.12 222.16 395.33 221.16 395.72&#10;  Q 220.21 396.10 217.43 397.62&#10;  A 1.40 1.39 -33.2 0 1 215.65 397.25&#10;  C 211.04 391.23 203.36 387.04 195.96 389.56&#10;  C 185.20 393.22 181.23 404.97 183.55 415.21&#10;  Q 184.71 420.34 188.33 424.31&#10;  Q 192.21 428.56 197.08 429.70&#10;  C 203.67 431.26 210.91 428.26 215.07 422.80&#10;  A 2.79 2.78 33.6 0 1 218.67 422.08&#10;  L 227.61 427.24&#10;  A 1.90 1.89 -58.6 0 1 228.25 429.90&#10;  Q 222.82 438.32 213.44 441.92&#10;  Q 211.42 442.69 206.34 444.00&#10;  Z"/>
<path fill="#1e2744" fill-opacity="0.992" d="&#10;  M 547.96 444.00&#10;  L 537.08 444.00&#10;  Q 521.31 440.68 513.43 427.02&#10;  A 0.43 0.30 34.7 0 1 513.40 426.94&#10;  L 511.29 421.48&#10;  A 0.94 0.56 -75.8 0 1 511.23 421.28&#10;  Q 510.09 415.46 509.40 409.01&#10;  C 509.16 406.84 509.72 404.54 510.13 402.48&#10;  Q 513.15 387.48 524.77 380.34&#10;  C 535.17 373.95 548.18 373.32 559.21 379.76&#10;  Q 561.61 381.16 563.85 382.66&#10;  Q 566.07 384.14 570.53 390.61&#10;  A 0.58 0.58 0.0 0 1 570.40 391.40&#10;  Q 567.31 393.72 565.58 394.15&#10;  A 1.78 1.73 -74.2 0 0 564.75 394.63&#10;  Q 564.13 395.28 559.42 397.65&#10;  A 1.40 1.40 0.0 0 1 557.69 397.27&#10;  C 554.32 393.05 549.92 389.82 544.62 389.28&#10;  Q 535.82 388.39 529.71 395.15&#10;  C 524.83 400.55 524.45 406.44 525.04 413.37&#10;  Q 525.74 421.57 533.32 427.18&#10;  Q 536.38 429.44 539.83 429.92&#10;  Q 551.14 431.49 556.95 422.87&#10;  A 2.55 2.55 0.0 0 1 560.33 422.09&#10;  L 569.45 427.36&#10;  A 1.96 1.96 0.0 0 1 570.10 430.15&#10;  Q 562.55 441.43 547.96 444.00&#10;  Z"/>
<path fill="#1e2744" fill-opacity="0.992" d="&#10;  M 26.11 444.00&#10;  L 18.57 444.00&#10;  Q 5.49 441.25 0.38 429.39&#10;  A 1.92 1.92 0.0 0 1 1.32 426.90&#10;  L 11.67 422.04&#10;  A 0.77 0.77 0.0 0 1 12.69 422.39&#10;  Q 13.08 423.17 15.52 426.53&#10;  Q 19.46 431.94 25.78 429.48&#10;  Q 28.27 428.51 29.35 425.63&#10;  Q 30.10 423.64 30.10 420.26&#10;  Q 30.18 391.56 29.91 377.09&#10;  A 0.92 0.91 89.7 0 1 30.82 376.16&#10;  L 43.81 376.03&#10;  A 1.09 1.09 0.0 0 1 44.91 377.13&#10;  Q 44.89 379.61 44.98 419.51&#10;  Q 45.00 426.42 42.93 431.45&#10;  Q 39.84 438.91 32.63 441.88&#10;  Q 30.14 442.91 26.11 444.00&#10;  Z"/>
<path fill="#1e2744" fill-opacity="0.992" d="&#10;  M 100.48 431.42&#10;  L 100.48 441.47&#10;  A 1.45 1.45 0.0 0 1 99.03 442.92&#10;  L 56.55 442.92&#10;  A 1.45 1.45 0.0 0 1 55.10 441.47&#10;  L 55.10 377.53&#10;  A 1.45 1.45 0.0 0 1 56.55 376.08&#10;  L 99.16 376.08&#10;  A 1.45 1.45 0.0 0 1 100.61 377.53&#10;  L 100.61 387.42&#10;  A 1.45 1.45 0.0 0 1 99.16 388.87&#10;  L 71.49 388.87&#10;  A 1.45 1.45 0.0 0 0 70.04 390.33&#10;  L 70.15 401.27&#10;  A 1.45 1.45 0.0 0 0 71.60 402.71&#10;  L 93.66 402.71&#10;  A 1.45 1.45 0.0 0 1 95.11 404.16&#10;  L 95.11 414.49&#10;  A 1.45 1.45 0.0 0 1 93.66 415.94&#10;  L 71.36 415.94&#10;  A 1.45 1.45 0.0 0 0 69.91 417.39&#10;  L 69.91 428.52&#10;  A 1.45 1.45 0.0 0 0 71.36 429.97&#10;  L 99.03 429.97&#10;  A 1.45 1.45 0.0 0 1 100.48 431.42&#10;  Z"/>
<path fill="#1e2744" fill-opacity="0.992" d="&#10;  M 146.08 409.57&#10;  Q 156.60 423.57 168.23 442.15&#10;  A 0.53 0.52 73.8 0 1 167.79 442.96&#10;  L 152.79 442.96&#10;  A 2.95 2.95 0.0 0 1 150.27 441.54&#10;  L 137.82 421.03&#10;  A 0.92 0.92 0.0 0 0 136.25 421.02&#10;  Q 129.81 431.62 124.32 440.08&#10;  Q 123.48 441.38 122.18 442.51&#10;  A 1.41 1.40 23.9 0 1 121.24 442.87&#10;  L 106.56 442.87&#10;  A 0.72 0.72 0.0 0 1 105.96 441.76&#10;  L 126.98 409.21&#10;  A 1.35 1.34 44.1 0 0 126.95 407.72&#10;  L 105.99 377.27&#10;  A 0.76 0.76 0.0 0 1 106.62 376.08&#10;  L 121.63 376.08&#10;  A 3.17 3.16 -15.5 0 1 124.34 377.61&#10;  L 135.51 396.02&#10;  A 0.98 0.98 0.0 0 0 137.20 396.00&#10;  L 147.97 377.34&#10;  A 2.60 2.60 0.0 0 1 150.22 376.04&#10;  L 165.87 376.04&#10;  A 0.65 0.65 0.0 0 1 166.42 377.04&#10;  L 146.05 408.61&#10;  A 0.84 0.84 0.0 0 0 146.08 409.57&#10;  Z"/>
<path fill="#1e2744" fill-opacity="0.992" d="&#10;  M 250.90 416.73&#10;  L 250.90 428.69&#10;  A 1.29 1.28 0.0 0 0 252.19 429.97&#10;  L 279.96 429.97&#10;  A 1.54 1.53 -90.0 0 1 281.49 431.51&#10;  L 281.49 441.26&#10;  A 1.81 1.80 -0.0 0 1 279.68 443.06&#10;  L 236.95 443.06&#10;  A 0.84 0.84 0.0 0 1 236.11 442.21&#10;  C 236.28 431.03 235.81 421.38 235.95 409.01&#10;  Q 236.10 395.37 235.26 377.87&#10;  A 1.71 1.71 0.0 0 1 236.97 376.08&#10;  L 279.69 376.08&#10;  A 1.24 1.23 0.0 0 1 280.93 377.31&#10;  L 280.93 387.78&#10;  A 1.18 1.17 -0.0 0 1 279.75 388.95&#10;  L 252.00 388.95&#10;  A 1.09 1.08 -90.0 0 0 250.92 390.04&#10;  L 250.92 401.27&#10;  A 1.25 1.25 0.0 0 0 252.16 402.52&#10;  Q 264.57 402.67 273.93 402.53&#10;  Q 276.12 402.50 276.04 405.55&#10;  Q 275.94 409.66 276.02 414.64&#10;  A 1.28 1.28 0.0 0 1 274.74 415.95&#10;  L 251.69 415.95&#10;  A 0.79 0.78 0.0 0 0 250.90 416.73&#10;  Z"/>
<path fill="#1e2744" fill-opacity="0.992" d="&#10;  M 304.87 429.15&#10;  A 0.88 0.87 -0.0 0 0 305.75 430.02&#10;  L 332.22 430.02&#10;  A 1.42 1.42 0.0 0 1 333.64 431.44&#10;  L 333.64 441.87&#10;  A 1.25 1.24 -0.0 0 1 332.39 443.11&#10;  Q 315.86 443.02 292.51 443.26&#10;  Q 289.82 443.29 289.86 440.53&#10;  Q 290.02 428.75 289.75 385.02&#10;  Q 289.73 381.94 289.40 378.04&#10;  A 1.77 1.77 0.0 0 1 291.16 376.11&#10;  L 303.43 376.11&#10;  A 1.44 1.44 0.0 0 1 304.87 377.55&#10;  L 304.87 429.15&#10;  Z"/>
<path fill="#1e2744" fill-opacity="0.992" d="&#10;  M 341.48 376.06&#10;  L 353.58 376.06&#10;  A 1.37 1.37 0.0 0 1 354.95 377.43&#10;  L 354.95 428.22&#10;  A 1.37 1.37 0.0 0 0 356.32 429.59&#10;  L 382.23 429.59&#10;  A 1.37 1.37 0.0 0 1 383.60 430.96&#10;  L 383.60 441.73&#10;  A 1.37 1.37 0.0 0 1 382.23 443.10&#10;  L 341.48 443.10&#10;  A 1.37 1.37 0.0 0 1 340.11 441.73&#10;  L 340.11 377.43&#10;  A 1.37 1.37 0.0 0 1 341.48 376.06&#10;  Z"/>
<path fill="#1e2744" fill-opacity="0.992" d="&#10;  M 406.07 389.16&#10;  C 404.43 390.43 405.52 392.10 405.54 393.60&#10;  Q 405.61 397.91 405.59 400.79&#10;  A 1.75 1.74 -89.0 0 0 407.28 402.55&#10;  Q 407.74 402.57 427.50 402.37&#10;  Q 430.92 402.33 430.94 404.95&#10;  Q 430.96 410.62 430.92 415.22&#10;  A 0.73 0.73 0.0 0 1 430.19 415.94&#10;  L 406.34 415.94&#10;  A 0.90 0.89 -61.1 0 0 405.86 416.08&#10;  Q 404.95 416.65 405.26 417.71&#10;  Q 405.50 418.53 405.50 419.44&#10;  Q 405.54 423.93 405.37 428.28&#10;  A 1.72 1.71 1.1 0 0 407.09 430.06&#10;  L 434.95 430.06&#10;  A 1.17 1.16 90.0 0 1 436.11 431.23&#10;  L 436.11 441.29&#10;  A 1.74 1.74 0.0 0 1 434.37 443.03&#10;  L 392.01 443.03&#10;  A 1.29 1.29 0.0 0 1 390.72 441.74&#10;  Q 390.73 408.13 390.87 385.73&#10;  C 390.88 383.54 390.47 380.48 390.47 377.80&#10;  A 1.71 1.71 0.0 0 1 392.18 376.08&#10;  L 434.14 376.08&#10;  A 1.54 1.53 -0.0 0 1 435.68 377.61&#10;  L 435.68 387.37&#10;  A 1.47 1.46 0.0 0 1 434.21 388.83&#10;  L 407.01 388.83&#10;  A 1.56 1.49 -63.1 0 0 406.07 389.16&#10;  Z"/>
<path fill="#1e2744" fill-opacity="0.992" d="&#10;  M 460.33 404.02&#10;  A 0.68 0.68 0.0 0 0 459.30 404.60&#10;  L 459.30 441.99&#10;  A 1.09 1.09 0.0 0 1 458.21 443.08&#10;  L 446.52 443.08&#10;  A 1.69 1.68 89.7 0 1 444.84 441.41&#10;  L 444.25 378.04&#10;  A 1.91 1.90 89.9 0 1 446.15 376.12&#10;  L 457.17 376.12&#10;  A 1.45 1.44 -25.1 0 1 458.09 376.45&#10;  Q 459.88 377.88 460.92 379.32&#10;  Q 472.30 395.09 482.15 409.45&#10;  C 483.31 411.14 484.52 412.13 485.26 413.86&#10;  A 0.95 0.95 0.0 0 0 487.08 413.49&#10;  L 487.08 377.48&#10;  A 1.37 1.37 0.0 0 1 488.45 376.11&#10;  L 500.55 376.11&#10;  A 1.44 1.44 0.0 0 1 501.99 377.55&#10;  L 501.99 441.74&#10;  A 1.29 1.29 0.0 0 1 500.63 443.03&#10;  Q 496.02 442.82 490.77 442.92&#10;  C 489.15 442.95 487.94 441.82 486.95 440.37&#10;  Q 476.22 424.77 464.59 408.98&#10;  Q 463.80 407.91 463.17 406.77&#10;  Q 462.32 405.21 460.33 404.02&#10;  Z"/>
<path fill="#1e2744" fill-opacity="0.992" d="&#10;  M 593.61 415.97&#10;  A 0.99 0.98 90.0 0 0 592.63 416.96&#10;  L 592.63 428.50&#10;  A 1.45 1.45 0.0 0 0 594.08 429.95&#10;  L 621.74 429.95&#10;  A 1.18 1.17 0.0 0 1 622.92 431.12&#10;  L 622.92 441.97&#10;  A 1.59 1.59 0.0 0 1 621.16 443.55&#10;  Q 617.05 443.11 615.00 443.07&#10;  Q 597.91 442.73 580.75 443.04&#10;  Q 579.36 443.06 578.64 442.89&#10;  A 1.90 1.90 0.0 0 1 577.14 441.03&#10;  L 577.08 377.41&#10;  A 1.30 1.30 0.0 0 1 578.38 376.11&#10;  L 621.89 376.11&#10;  A 1.03 1.02 -0.0 0 1 622.92 377.13&#10;  L 622.92 387.72&#10;  A 1.26 1.26 0.0 0 1 621.66 388.98&#10;  L 594.59 388.98&#10;  A 1.97 1.97 0.0 0 0 592.62 390.97&#10;  L 592.71 401.35&#10;  A 1.35 1.35 0.0 0 0 594.06 402.69&#10;  L 615.55 402.69&#10;  A 2.19 2.19 0.0 0 1 617.74 404.88&#10;  L 617.74 414.91&#10;  A 1.07 1.06 0.0 0 1 616.67 415.97&#10;  L 593.61 415.97&#10;  Z"/>
</svg>